<?xml version="1.0" encoding="UTF-8"?>
<svg xmlns="http://www.w3.org/2000/svg" version="1.1" viewBox="0 0 1080 1920">
  <defs>
    <style>
      .cls-1 {
        fill-opacity: 0;
      }

      .cls-1, .cls-2, .cls-3 {
        fill: #393756;
      }

      .cls-3 {
        stroke: #393756;
        stroke-linecap: round;
        stroke-linejoin: round;
        stroke-width: 2px;
      }
    </style>
  </defs>
  <!-- Generator: Adobe Illustrator 28.6.0, SVG Export Plug-In . SVG Version: 1.2.0 Build 709)  -->
  <g>
    <g id="Capa_1">
      <path class="cls-1" d="M302.9,881.5c-9.6,13-26.8,18.4-41.7,22.2-16,4-33.7,5-49.1-2.1-14-6.6-23.2-19-25-34.4-.4-3.1-.4-6.3-.3-9.4,1.7.3,3.7-.8,3.6-2.8-.2-8.9.6-18,3-26.7,1.2-2.8,2.4-5.6,3.8-8.4,3.5-7,8.4-14.2,14.3-19.8,8.6-6.8,19.2-10.7,30.3-10,15.2.9,30.9,8.7,43,17.7,11.3,8.6,20.6,20.3,24.3,34.1,3.5,13.2,2.1,28.3-6.2,39.5h0Z"/>
      <path class="cls-1" d="M302.9,1067c-9.6,13-26.8,18.4-41.7,22.2-16,4-33.7,5-49.1-2.1-14-6.6-23.2-19-25-34.4-.4-3.1-.4-6.3-.3-9.4,1.7.3,3.7-.8,3.6-2.8-.2-8.9.6-18,3-26.7,1.2-2.8,2.4-5.6,3.8-8.4,3.5-7,8.4-14.2,14.3-19.8,8.6-6.8,19.2-10.7,30.3-10,15.2.9,30.9,8.7,43,17.7,11.3,8.6,20.6,20.3,24.3,34.1,3.5,13.2,2.1,28.3-6.2,39.5h0Z"/>
      <path class="cls-1" d="M302.9,1252.6c-9.6,13-26.8,18.4-41.7,22.2-16,4-33.7,5-49.1-2.1-14-6.6-23.2-19-25-34.4-.4-3.1-.4-6.3-.3-9.4,1.7.3,3.7-.8,3.6-2.8-.2-8.9.6-18,3-26.7,1.2-2.8,2.4-5.6,3.8-8.4,3.5-7,8.4-14.2,14.3-19.8,8.6-6.8,19.2-10.7,30.3-10,15.2.9,30.9,8.7,43,17.7,11.3,8.6,20.6,20.3,24.3,34.1,3.5,13.2,2.1,28.3-6.2,39.5h0Z"/>
      <path class="cls-1" d="M570,1454c9.8,1.8,19.1,6.8,27.5,11.9,7.6,4.5,13.9,10.3,18,18.2,3.8,7.3,5.5,15.5,5.3,23.7-.3,10.7-4.4,20.5-11.2,28.3-2.7,2.6-5.8,5-9.1,7-7.9,4.7-16.6,7.8-25.6,9.9-2.4.5-4.8,1-7.4,1.3-7-.3-13.8-2.1-20-5.6-8.3-4.7-13.4-12.5-16.7-21.3-3.6-9.6-6.8-20.1-7.1-30.4-.5-16.7,9.6-32.2,24.5-39.5,3-1.5,6.1-2.7,9.4-3.6,4-.7,8.2-.7,12.2,0v.2h.2,0Z"/>
      <path class="cls-1" d="M538,1741.9c-1.8-8.5,5-15.4,12.2-18.6,3.6-1.6,7.5-2.5,11.3-3.3,4.6-1,9.3-2,13.9-2.6,4.7-.6,9.5-.7,14.2.3,4.4,1,8.5,3.1,12,5.8,3.4,2.6,6.4,5.7,9.4,8.9,2.8,2.9,5.5,5.9,8.1,9.2,4.8,6.2,8.9,13.2,9.9,21.1,1,8.9-1.6,17.9-5.4,25.8-7.2,14.6-20,26.1-35.7,30.6-16.7,4.8-35.5,1.3-48-11.2s-17.4-28.7-16.6-44.9c.4-8,2.6-15.9,6.7-22.9,2.2-3.7,4.8-7.1,7.9-10-2.2,3.5-3.2,7.7-2.3,11.8.4,1.7,3.1,1.5,2.7-.2v.2h-.3Z"/>
      <path class="cls-1" d="M566.8,1038.6c9.8,1.8,19.1,6.8,27.5,11.9,7.6,4.5,13.9,10.3,18,18.2,3.8,7.3,5.5,15.5,5.3,23.7-.3,10.7-4.4,20.5-11.2,28.3-2.7,2.6-5.8,5-9.1,7-7.9,4.7-16.6,7.8-25.6,9.9-2.4.5-4.8,1-7.4,1.3-7-.3-13.8-2.1-20-5.6-8.3-4.7-13.4-12.5-16.7-21.3-3.6-9.6-6.8-20.1-7.1-30.4-.5-16.7,9.6-32.2,24.5-39.5,3-1.5,6.1-2.7,9.4-3.6,4-.7,8.2-.7,12.2,0v.2h.2,0Z"/>
      <path class="cls-1" d="M595.4,1261.1c8-3.3,16,1.9,20.5,8.5,2.2,3.2,3.9,6.9,5.4,10.5,1.9,4.3,3.7,8.7,5.2,13.2s2.5,9.2,2.4,13.9c0,4.5-1.4,8.9-3.5,12.9-1.9,3.8-4.4,7.4-7,10.9-2.4,3.3-4.8,6.6-7.5,9.7-5.1,5.9-11.3,11.3-18.9,13.7-8.5,2.7-17.8,1.8-26.4-.4-15.7-4.2-29.4-14.6-36.9-29.1-7.9-15.5-8.1-34.7,1.8-49.3,9.1-13.5,24.8-22.6,40.8-24.9,8-1.1,16.1-.5,23.7,2.2,4,1.4,7.8,3.4,11.4,5.8-3.8-1.4-8.2-1.7-12.1,0-1.6.7-.9,3.3.7,2.6l.2-.2h.2,0Z"/>
      <path class="cls-1" d="M629.9,931.1c-.8,7.4-3.5,14.7-6.9,21.2-6.5,12.5-17,23.1-30.7,27.3-6.9,2.2-14.3,2.8-21.4,1.3-6.2-1.2-11.6-4.1-16.8-7.5.3,0,.6.2.9.2.6,0,.9-.8.3-1-1.7-.4-3.3-.9-4.8-1.6,0,0-.2-.2-.3-.2-3.4-2.4-7-4.8-10.2-7.7-4.9-5.5-8.5-12.6-10.7-19.3-1.7-5.1-2.8-10.7-3.3-16.2,0-5.7.3-11.6,1.4-17.2,1.4-7.2,4.5-14,10.1-19.1,2.4-2.2,5.3-3.9,8.6-4.9.3,0,.2-.5,0-.4-2.3.5-4.5,1.4-6.5,2.6,5-4.7,11.3-8.2,18.2-10.2,12.4-3.5,25.7-2.2,37.3,3.4,12,5.9,21.8,15.9,28.5,27.4,1.7,2.9,3.3,6.1,4.6,9.3,1.6,4,2.2,8.1,1.7,12.4h0v.2h0Z"/>
      <path class="cls-1" d="M570,717.5c9.8,1.8,19.1,6.8,27.5,11.9,7.6,4.5,13.9,10.3,18,18.2,3.8,7.3,5.5,15.5,5.3,23.7-.3,10.7-4.4,20.5-11.2,28.3-2.7,2.6-5.8,5-9.1,7-7.9,4.7-16.6,7.8-25.6,9.9-2.4.5-4.8,1-7.4,1.3-7-.3-13.8-2.1-20-5.6-8.3-4.7-13.4-12.5-16.7-21.3-3.6-9.6-6.8-20.1-7.1-30.4-.5-16.7,9.6-32.2,24.5-39.5,3-1.5,6.1-2.7,9.4-3.6,4-.7,8.2-.7,12.2,0v.2h.2,0Z"/>
      <path class="cls-1" d="M619,583.5c4.7,7.2,1,16.1-4.5,21.7-2.8,2.8-6.1,5.1-9.3,7.3-3.9,2.6-7.9,5.2-12,7.6-4.1,2.3-8.6,4.1-13.3,4.9-4.5.7-9,.2-13.4-1-4.1-1.2-8.1-3-12-4.8-3.6-1.7-7.4-3.5-10.9-5.5-6.8-3.9-13.1-9-16.9-16-4.2-7.9-5-17.2-4.4-26,1.3-16.2,9-31.6,21.9-41.6,13.8-10.6,32.6-14.3,48.8-7.3,14.9,6.5,26.7,20.3,32,35.6,2.6,7.6,3.4,15.7,2.2,23.7-.7,4.2-1.9,8.3-3.6,12.2.7-4,.2-8.3-2.2-11.9-.9-1.4-3.4-.3-2.4,1.2h.2-.2,0Z"/>
      <path class="cls-1" d="M478,149.2c7-10.1,14.7-19.8,23.2-28.7,15.8-12.5,34.6-21.4,54.2-25.7,32.7-7.3,66.6-1.1,94.5,17.2,8.9,5.8,17,12.8,24.4,20.6.5.9,1,1.8,1.5,2.7,4.8,9,7.8,18.9,11,28.4,6.8,20.5,13,41.5,13.6,63.2.6,21.1-5,41.5-15.3,59.6-20.4,24.3-48.4,42.5-79.6,49.1-36.6,7.9-76.4,0-107.2-21.3-14.2-9.9-26.3-22.8-35.6-37.4-3.9-9-7-18.4-8.9-27.9-3.2-16-3.2-32.8.4-48.8,4.1-18.5,12.9-35.5,23.7-50.9h0Z"/>
      <path class="cls-2" d="M714.7,249.1c7.9-19.1,11.9-39.6,10.7-60.3-.6-10.7-2.8-21.2-7.3-31-4.2-9.4-10.3-17.8-16.8-25.6-9.2-10.9-19.6-20.7-31.1-29.1-.6-.6-1.3-1.2-1.9-1.7-27-23.2-61.9-35.1-97.6-32.9-18.9,1.2-37.4,6.2-54.1,14.6,1-1.5-.9-3.9-2.9-2.9-29.6,14.5-53.3,39.7-67.9,69.4-14.5,29.6-20,63.7-13.5,96.2,1.6,8.1,3.9,15.8,7,23.5.1.6.2,1.3.4,1.9,3.7,16.9,11.3,32.9,22.6,46,11.1,12.8,25.4,22.3,41,28.5,3.7,1.5,7.6,2.8,11.4,3.9,19.7,9.8,41.2,15.6,63.3,16.1,19.3.4,39-3,56.5-11.5,16.9-8.2,30.1-21.5,40.9-36.6,7.9-7.8,14.9-16.4,20.9-25.9,8.3-13.1,14.4-27.5,18.4-42.5v-.2h0ZM483.5,321.5c-18.6-16.4-33.1-37.3-41.2-60.6-1.1-8-1.6-15.9-1.4-24,2.5,11.9,6.8,23.4,12.5,34.1,3.6,8.5,8.2,16.6,13.4,24.2,10.3,16.6,24.1,31.1,40.7,41.4,8.8,5.4,18.3,9.8,28,12.9-3.9-.6-8-1.3-11.8-2.2-14.6-6.5-28.2-15.2-40.2-25.8h0ZM702.4,157.7c-2.1-3.4-4.3-6.9-6.7-10.2-11-15.5-23.7-29.9-38.2-42.4-5.5-4.7-11.4-9.2-17.4-13.2,7.2,3.5,14,7.5,20.4,11.9,3,2,5.8,4.2,8.8,6.5,14,13.3,25.4,29.5,33.2,47.4h0ZM603.5,345.7c-4.6,1.1-9.3,2-14,2.8-5.4.4-11,.6-16.5.3-29.4-1.6-58.3-13.4-80.7-32.7,2.7,2,5.5,4,8.5,5.8,32.5,20.5,73.6,27.1,110.8,17.8,18.6-4.6,36-13.2,51.4-24.7l-.3.3c-6.5,6.2-13.5,11.5-21,16.1-12,6.5-24.9,11-38.2,14.1h0v.2h0ZM478,149.3c7-10.1,14.7-19.8,23.2-28.7,15.8-12.5,34.6-21.4,54.2-25.7,32.7-7.3,66.6-1.1,94.5,17.2,8.9,5.8,17,12.8,24.4,20.6.5.9,1,1.8,1.5,2.7,4.8,9,7.8,18.9,11,28.4,6.8,20.5,13,41.5,13.6,63.2.6,21.1-5,41.5-15.3,59.6-20.4,24.3-48.4,42.5-79.6,49.1-36.6,7.9-76.4,0-107.2-21.3-14.2-9.9-26.3-22.8-35.6-37.4-3.9-9-7-18.4-8.9-27.9-3.2-16-3.2-32.8.4-48.8,4.1-18.5,12.9-35.5,23.7-50.9h0ZM542,92.8c2.5-.5,5.1-1,7.7-1.4-10.2,2.6-20,6.5-29.2,11.3,2.9-2.3,5.8-4.5,8.9-6.7,4.1-1.3,8.4-2.4,12.7-3.3h-.1ZM702.2,256.8c2.9-12.1,4-24.8,2.9-37.5-1.9-22.4-8.9-44-16-65.1-.6-1.8-1.2-3.7-1.9-5.5,8.5,12.4,14.8,26.2,18.5,40.8,5.1,20.7,4.2,42.4-1.4,62.7-.7,1.5-1.3,3.1-2,4.6h0ZM598.6,86.1c-17.4-2.6-35.4-2.5-52.7.5,5.9-2.7,12.1-4.8,18.7-6.3,8.4-1.8,16.8-2.4,25.2-2,14.3,2.5,28,8.2,40.6,15.6-10.3-3.7-21.1-6.4-31.7-8h0v.2h0ZM525.6,91.6c-12.6,4.1-24.6,10.2-34.9,18.5,15.9-14.1,35.1-24.8,55.7-30-7.3,3.1-14.2,7-20.7,11.5h0ZM490.6,116.9c6.3-5.4,13.2-9.9,20.6-13.6-.7.6-1.4,1.3-2.1,1.9-5.5,5.2-10.9,10.7-16,16.4-8.3,7.5-15.7,15.9-21.9,25.3-.7,1-.3,2,.4,2.6-.3.5-.7,1-1,1.5-10.5,16.1-18.8,34-22,53-1.2,7-1.7,13.9-1.7,21-.4-4.2-.6-8.4-.6-12.6s.2-10.8.8-16.1c2.9-11.3,6.9-22.2,11.5-32.7,7.7-17.4,17.6-34.3,32.2-46.9h-.1v.2h0ZM467.2,136.9c-3.4,5.4-6.6,11.1-9.4,16.8.9-2.2,1.9-4.4,3-6.6,2-3.5,4.1-7,6.4-10.3h0ZM719.3,196.9v4.5c0-.5,0-1-.2-1.4-.3-3.2-.6-6.5-1.1-9.7-2.5-16.2-8-32.1-15.7-46.7,5.1,6.9,9.6,14.3,12.5,22.3,3.5,9.9,4.8,20.5,4.7,31h-.2ZM452.4,147.1c10.3-19.8,24.7-37.2,42.5-50.5-6.8,5.2-13.1,11.2-18.7,17.8-4.6,5.4-8.8,11.2-12.5,17.1-.4.6-.8,1.1-1.2,1.7-16.3,24.2-25.3,53.1-24.2,82.2-1,7-1.7,14-1.9,21.1-4.4-30.5,1.9-62.3,16-89.4h0ZM463.4,311.6c-4.1-5.1-7.7-10.7-10.6-16.5,8.7,13.2,19.5,25,31.7,35,1.5,1.2,3,2.4,4.5,3.6-9.7-5.8-18.5-13.2-25.7-22h.1ZM624.9,351.8c-16.9,6.6-35.4,8.8-53.4,7.6-8.5-.6-16.7-2-24.9-4.1,5.8.4,11.7.6,17.6.4,16,1.7,32.4.6,48-3,12.8-3,24.9-7.9,36.1-14.3-7,5.6-14.7,10.2-23.3,13.5h0Z"/>
      <path class="cls-3" d="M624.6,761c-.2-.6-.7-.8-1.1-.7-1.7-9.4-5.9-18.4-12.7-25.2-7.3-7.5-17.4-12.6-26.9-16.7-9.2-4-19.2-6.2-29-3.7-18.3,4.5-31,21.2-34.1,39.2-1.8,10.3-1,21,1.6,31.1,2.4,9.2,6.2,18.5,12.6,25.5,8.3,9,19.6,11.3,31.1,10.3,6.7.5,13.4-.2,19.7-2.1,10.8-3.2,20.6-9.7,27.5-18.4,7-7,12-15.6,12.9-26,.4-4.5,0-9-1.6-13.3h0ZM570,717.5c9.8,1.8,19.1,6.8,27.5,11.9,7.6,4.5,13.9,10.3,18,18.2,3.8,7.3,5.5,15.5,5.3,23.7-.3,10.7-4.4,20.5-11.2,28.3-2.7,2.6-5.8,5-9.1,7-7.9,4.7-16.6,7.8-25.6,9.9-2.4.5-4.8,1-7.4,1.3-7-.3-13.8-2.1-20-5.6-8.3-4.7-13.4-12.5-16.7-21.3-3.6-9.6-6.8-20.1-7.1-30.4-.5-16.7,9.6-32.2,24.5-39.5,3-1.5,6.1-2.7,9.4-3.6,4-.7,8.2-.7,12.2,0v.2h.2,0ZM546.2,815.4c-8.1-3.7-13.5-11.2-17-19.2-2.6-5.8-4.5-12.2-5.5-18.7v.2c2.5,9.7,5.5,20,11.9,27.9,3.9,4.9,9,8.7,14.6,11.1-1.3-.4-2.6-.9-3.9-1.4h0Z"/>
      <path class="cls-2" d="M624.6,1497.5c-.2-.6-.7-.8-1.1-.7-1.7-9.4-5.9-18.4-12.7-25.2-7.3-7.5-17.4-12.6-26.9-16.7-9.2-4-19.2-6.2-29-3.7-18.3,4.5-31,21.2-34.1,39.2-1.8,10.3-1,21,1.6,31.1,2.4,9.2,6.2,18.5,12.6,25.5,8.3,9,19.6,11.3,31.1,10.3,6.7.5,13.4-.2,19.7-2.1,10.8-3.2,20.6-9.7,27.5-18.4,7-7,12-15.6,12.9-26,.4-4.5,0-9-1.6-13.3h0ZM570,1454c9.8,1.8,19.1,6.8,27.5,11.9,7.6,4.5,13.9,10.3,18,18.2,3.8,7.3,5.5,15.5,5.3,23.7-.3,10.7-4.4,20.5-11.2,28.3-2.7,2.6-5.8,5-9.1,7-7.9,4.7-16.6,7.8-25.6,9.9-2.4.5-4.8,1-7.4,1.3-7-.3-13.8-2.1-20-5.6-8.3-4.7-13.4-12.5-16.7-21.3-3.6-9.6-6.8-20.1-7.1-30.4-.5-16.7,9.6-32.2,24.5-39.5,3-1.5,6.1-2.7,9.4-3.6,4-.7,8.2-.7,12.2,0v.2h.2,0ZM546.2,1551.9c-8.1-3.7-13.5-11.2-17-19.2-2.6-5.8-4.5-12.2-5.5-18.7v.2c2.5,9.7,5.5,20,11.9,27.9,3.9,4.9,9,8.7,14.6,11.1-1.3-.4-2.6-.9-3.9-1.4h0Z"/>
      <path class="cls-2" d="M610.1,649.1c2.3-1.3,4.5-2.8,6.7-4.3,2.4-1.1,4.8-2.3,7.2-3.5,8.1-4.2,15.4-9.6,21.6-16.2,12.4-13.1,20.8-31.2,21.7-49.2.5-9.9-2.4-19.4-5.2-28.7-2.4-8.1-5-16.1-9-23.6-3.8-7.4-8.9-14.1-15.7-19-7.6-5.4-16.8-9-25.5-12.2s-17.6-5.4-26.9-5.8c-8.8-.4-17.5.6-26,2.9-17.3,4.7-33.3,14.5-45.2,28.1-10.9,12.4-17.6,27.9-19.7,44.3-2,15.9.5,32.5,7.7,46.9,3,6.1,6.9,11.8,11.3,16.9-5-4.6-9.6-9.8-13.4-15.5-4.5-7-8.1-14.7-9.9-22.8-2.1-9-1.8-18.2-.6-27.2,1.1-8.8,2.2-17.9,4.9-26.4,2.6-8.3,7.5-15.2,13.6-21.3,5.9-5.9,12.5-11.5,19.4-16.4,7.7-5.5,16.7-8.1,25.9-10,17.5-3.7,36.1-4.5,53.4.3,14.5,4,28.2,11.9,38.1,23.4.7.8,1.9-.3,1.2-1.1-10.5-12.8-25.3-21.2-41.3-25-18.4-4.4-37.7-3.1-56.1,1.3-4.7,1.1-9.6,2.4-14,4.4-4.3,1.9-8.2,4.5-11.8,7.5-6.9,5.4-13.9,11.1-19.8,17.6-5.9,6.7-10,14.2-12.1,22.8-1.1,4.5-1.9,9.2-2.6,13.7-.8,4.9-1.5,10-2,15-.8,9.2-.1,18.4,2.6,27.1,2.5,8.4,6.7,16.1,11.8,23.2,10.5,14.1,25.4,24.5,41.5,31.3.3,0,.6.2.9.3,3.6,1.6,7.4,3,11.3,4,.3,0,.6.2,1,.2,4,1.2,8.1,2.2,12.2,3,4.6.9,9.4,1.4,14.1,1.2,3.5-.2,6.9-.9,10.2-1.8,6.5-.6,12.7-1.9,18.6-5.2h0v-.2h-.1ZM500.5,597.3c-5-14.5-5.4-30.7-1.7-45.5,4-15.8,12.7-29.8,24.9-40.7,12.8-11.3,28.8-18.9,45.7-21.3,8.3-1.2,16.6-1.2,24.9.2,9,1.5,17.5,4.9,25.9,8.5,8.1,3.4,15.9,7.3,22,13.9,5.3,5.8,9,12.9,11.9,20.2,3.1,7.9,5.4,15.9,7.7,24.1,1.3,4.7,2.3,9.5,2.5,14.3.2,4.5-.3,9.1-1.2,13.5-3.4,16.9-12.5,32.7-25.6,44-3.2,2.8-6.8,5.2-10.4,7.4,1.2-1.2,2.4-2.4,3.5-3.7,11.7-12.6,20.1-28.2,23-45.2,1.6-9.1,1.6-18.5,0-27.5-1.6-8.9-4.7-17.9-10.2-25.2-5.4-7.3-13.4-12.3-21.3-16.7-8-4.5-16.3-8.2-25.4-9.8-13.1-2.4-26.9-.6-39.2,4.7-14.3,4.3-26.8,14.1-35,26.6-9.3,14.1-13.4,31.6-10.8,48.3,1.4,9.2,5,18.2,11,25.3,5.4,6.7,12.6,11.6,20.3,15.5,15.1,7.7,33.6,11.7,49.9,5.4,5.6-2.1,10.6-5.6,15-9.6,2.8-1.4,5.5-2.9,8.2-4.6,7.4-4.9,13-11.7,16.5-19.8,3.2-7.6,4.6-15.8,4.6-24s-2-19.1-6.1-27.7c-3.9-8.4-10-15.5-16.9-21.5-6.9-5.8-14.4-11-23.1-13.8-4.4-1.4-9.1-2.3-13.8-2.5,11.3-1.4,22.8.2,33.4,4.8,7.9,3.4,15.7,8,22.5,13.3,7.3,5.7,12,13.2,14.9,22,5.4,16.3,4.5,34.5-1.5,50.5-5.6,15-15.8,28.4-28.4,38.4-1.8,1.4-3.6,2.8-5.5,4-3.7,1.5-7.5,3-11.2,4.4-2.5.9-4.9,1.9-7.5,2.7-9.3,1.1-19.2.8-28.4-.4-29.2-3.8-55.4-24.6-65-52.5h-.1ZM577.6,512.9c17.2,1.1,32.8,11.7,43.4,24.9,11,13.8,14.8,32.4,11.3,49.6-1.5,7.6-4.7,14.9-9.8,20.8-.7.8-1.5,1.6-2.3,2.4,3.3-4.3,6.3-9.1,8.5-14,3.4-7.6,5.2-15.8,4.7-24.2-.4-8.6-3-16.9-7.2-24.5-8-14.4-21.9-26.9-38.3-30.5-17.7-3.8-36.5,3.2-48.8,16-11.7,12.2-17.6,29.1-16.9,45.9.4,9.2,2.8,18.2,8.8,25.3,5.2,6.3,12.4,10.6,19.6,14.3,6.8,3.4,14,7.2,21.6,8.6-7.9,0-15.7-1.2-23.1-3.7-7.2-2.4-13.9-6.3-19.3-11.7-5.7-5.9-9.3-13.5-10.9-21.5-3.2-15.5.3-32.3,8-46,7.2-12.9,18.3-23.4,31.7-29.4,6.2-1.8,12.6-2.6,19.2-2.2h-.2ZM561.1,630.9c10.7,1.5,22,.9,32.7-1.8-3.7,1.7-7.8,3-12,3.6-8.6,1.2-17.4,0-25.9-2.7,1.7.4,3.4.7,5.1.9h.1ZM600.8,622.2c-2.9,1.1-5.9,2.1-9,2.8,3.7-1.6,7.4-3.6,10.8-5.7,5-3.2,10.5-6.5,14.9-10.7-2.6,3.5-5.5,6.9-8.8,10-2.6,1.4-5.2,2.5-8,3.6h0ZM621.5,583.5c4.7,7.2,1,16.1-4.5,21.7-2.8,2.8-6.1,5.1-9.3,7.3-3.9,2.6-7.9,5.2-12,7.6-4.1,2.3-8.6,4.1-13.3,4.9-4.5.7-9,.2-13.4-1-4.1-1.2-8.1-3-12-4.8-3.6-1.7-7.4-3.5-10.9-5.5-6.8-3.9-13.1-9-16.9-16-4.2-7.9-5-17.2-4.4-26,1.3-16.2,9-31.6,21.9-41.6,13.8-10.6,32.6-14.3,48.8-7.3,14.9,6.5,26.7,20.3,32,35.6,2.6,7.6,3.4,15.7,2.2,23.7-.7,4.2-1.9,8.3-3.6,12.2.7-4,.2-8.3-2.2-11.9-.9-1.4-3.4-.3-2.4,1.2h.2-.2,0ZM514.2,582.9c-.2-2.5-.4-5-.3-7.6.4-15.5,6.4-30.9,16.7-42.4-5.4,6.9-9.8,14.7-12.6,23.1-2.8,8.5-4.3,17.7-3.8,26.9h0Z"/>
      <path class="cls-2" d="M661,1284.3c-.9-2.5-1.9-4.9-3-7.4-.6-2.6-1.3-5.1-2.1-7.7-2.6-8.7-6.6-16.9-11.9-24.2-10.6-14.5-26.8-26.1-44.5-30.4-9.7-2.3-19.5-1.1-29.2,0-8.4.9-16.7,2-24.8,4.4-8,2.4-15.5,6.2-21.5,11.9-6.8,6.5-11.9,14.9-16.6,22.9-4.7,8-8.6,16.3-10.7,25.3-2,8.6-2.6,17.3-1.9,26.1,1.4,17.9,8.2,35.4,19.3,49.5,10.2,13,24.3,22.5,39.9,27.5,15.3,4.8,32,5.4,47.5,1,6.6-1.9,12.8-4.6,18.8-8.1-5.4,4.1-11.4,7.7-17.7,10.3-7.7,3.2-15.9,5.1-24.2,5.5-9.2.4-18.2-1.6-26.9-4.4-8.5-2.7-17.2-5.5-25-9.7-7.7-4.1-13.6-10.2-18.5-17.2-4.7-7-9.1-14.4-12.6-22.1-4-8.6-4.8-17.9-5-27.3-.5-17.9,2.1-36.3,10.1-52.5,6.7-13.5,16.8-25.6,29.9-33.2.9-.5,0-1.9-.8-1.4-14.5,8-25.4,21-32.2,36-7.8,17.2-10,36.5-9.1,55.4.3,4.9.7,9.9,1.8,14.6,1.1,4.5,2.9,8.9,5.1,13,4.1,7.8,8.4,15.7,13.7,22.7,5.4,7.1,12.1,12.4,20.2,16.1,4.2,1.9,8.7,3.5,13,5.1,4.7,1.7,9.5,3.3,14.4,4.7,8.9,2.4,17.9,3.4,27.1,2.4,8.7-1,17-3.5,24.9-7.4,15.8-7.7,28.8-20.5,38.3-35.1.2-.3.3-.5.5-.8,2.3-3.3,4.3-6.8,6.1-10.3,0-.3.3-.6.4-.9,1.9-3.7,3.6-7.6,5.2-11.4,1.7-4.4,3.1-9,3.7-13.7.5-3.4.4-7,0-10.4.6-6.5.4-12.8-1.8-19.2h0v.4h0ZM590,1382.6c-15.2,2.3-31.2-.2-45.1-6.7-14.8-6.9-27-17.9-35.4-32-8.8-14.6-13.2-31.8-12.5-48.8.3-8.4,1.9-16.5,4.8-24.4,3.2-8.6,8.1-16.3,13.1-24,4.8-7.4,10.1-14.3,17.6-19.1,6.7-4.1,14.3-6.5,22-8,8.3-1.6,16.7-2.4,25.1-3.1,4.8-.4,9.8-.6,14.6,0,4.5.6,8.9,1.9,13.1,3.6,16,6.5,29.8,18.3,38.5,33.3,2.1,3.7,3.9,7.6,5.3,11.5-1-1.4-1.9-2.8-2.9-4.1-10.3-13.8-24-24.9-40.2-31-8.7-3.2-17.8-5-27.1-5s-18.5,1.4-26.7,5.3c-8.2,4-14.5,11-20.4,17.8-5.9,7-11,14.6-14.3,23.2-4.7,12.5-5.5,26.4-2.6,39.4,1.6,14.9,9,28.9,19.8,39.3,12.2,11.7,28.5,19.1,45.5,19.5,9.3.3,18.8-1.6,26.9-6.2,7.6-4.1,13.7-10.3,19-17,10.4-13.4,17.7-30.9,14.5-48.1-1.1-5.9-3.5-11.4-6.7-16.5-.8-3-1.8-5.9-3-8.9-3.4-8.1-9.1-14.9-16.3-19.9-6.8-4.5-14.7-7.5-22.8-9-9.4-1.7-19.2-1.6-28.3.9-8.9,2.3-17.1,7-24.3,12.7-7.1,5.6-13.4,12.2-17.7,20.2-2.2,4.1-3.9,8.6-5,13.1.7-11.3,4.4-22.3,10.9-31.9,4.8-7.2,10.7-13.9,17.1-19.7,7-6.2,15.2-9.4,24.3-10.7,17-2.3,34.8,1.9,49.4,10.8,13.7,8.4,25,20.8,32.6,35,1.1,2,2.1,4,2.9,6.2.8,3.9,1.6,7.9,2.3,11.8.5,2.6.9,5.2,1.3,7.9-.6,9.4-2.7,19-5.5,27.8-9.2,28-34.3,49.8-63.6,54.2v.2l-.2.3h0ZM521.2,1291.3c4.3-16.7,17.4-30,32.5-38,15.5-8.3,34.6-8.6,50.8-2,7.2,2.9,13.8,7.4,18.6,13.5.7.9,1.3,1.8,1.9,2.7-3.7-4-7.8-7.8-12.2-10.9-6.9-4.8-14.6-8.1-22.9-9.2-8.5-1.1-17.2,0-25.4,2.5-15.6,5.1-30.6,16.5-37,32.1-7.1,16.7-3.5,36.4,6.8,50.9,9.8,13.7,25.4,22.7,42,25.1,9.1,1.3,18.4.6,26.5-3.9,7.2-4,12.7-10.2,17.6-16.6,4.6-6.1,9.6-12.4,12.4-19.6-1.4,7.8-4,15.2-7.9,22-3.7,6.6-8.8,12.6-15.1,16.7-6.9,4.5-14.9,6.7-23.2,6.8-15.8.3-31.7-6.3-43.8-16.2-11.4-9.5-19.7-22.2-23.1-36.6-.7-6.4-.3-12.8,1.3-19.2h.2ZM634.1,1329.2c3.5-10.2,4.9-21.5,4.2-32.5,1,4,1.5,8.2,1.3,12.4-.4,8.7-3.2,17.2-7.5,25,.7-1.6,1.3-3.2,1.9-4.9h0ZM632.8,1288.7c.6,3.1.9,6.3,1.2,9.4-.9-3.9-2.2-7.9-3.7-11.7-2.2-5.5-4.4-11.5-7.8-16.6,3,3.2,5.7,6.8,8.2,10.5.9,2.8,1.5,5.6,2.1,8.5h0ZM598.5,1261.1c8-3.3,16,1.9,20.5,8.5,2.2,3.2,3.9,6.9,5.4,10.5,1.9,4.3,3.7,8.7,5.2,13.2s2.5,9.2,2.4,13.9c0,4.5-1.4,8.9-3.5,12.9-1.9,3.8-4.4,7.4-7,10.9-2.4,3.3-4.8,6.6-7.5,9.7-5.1,5.9-11.3,11.3-18.9,13.7-8.5,2.7-17.8,1.8-26.4-.4-15.7-4.2-29.4-14.6-36.9-29.1-7.9-15.5-8.1-34.7,1.8-49.3,9.1-13.5,24.8-22.6,40.8-24.9,8-1.1,16.1-.5,23.7,2.2,4,1.4,7.8,3.4,11.4,5.8-3.8-1.4-8.2-1.7-12.1,0-1.6.7-.9,3.3.7,2.6l.2-.2h.2,0ZM578.3,1366.5c-2.5-.2-5-.6-7.5-1.1-15.2-3.2-29.1-11.9-38.6-24.3,5.7,6.7,12.7,12.3,20.4,16.6,7.8,4.3,16.6,7.6,25.7,8.8h0Z"/>
      <path class="cls-2" d="M572.8,1685.1c-2.6.4-5.2.9-7.8,1.6-2.6,0-5.3.3-8,.6-9,.9-17.8,3.2-26.1,7.1-16.3,7.7-30.8,21.3-38.2,37.8-4,9.1-4.8,19-5.6,28.6-.7,8.4-1.2,16.8-.4,25.2.8,8.3,3.1,16.3,7.6,23.4,5,7.9,12.3,14.5,19.3,20.7,6.9,6.2,14.4,11.6,22.8,15.3,8,3.6,16.5,5.8,25.3,6.9,17.8,2,36.3-1.3,52.3-9.5,14.7-7.5,26.7-19.5,34.6-34,7.8-14,11.5-30.4,10.1-46.4-.6-6.8-2-13.5-4.3-19.9,3,6.2,5.3,12.6,6.7,19.4,1.7,8.2,2,16.6.8,24.8-1.4,9.1-5,17.5-9.5,25.5-4.2,7.8-8.7,15.8-14.3,22.7-5.4,6.8-12.6,11.4-20.5,14.8-7.7,3.3-15.9,6.2-24,8.2-9.2,2.3-18.6,1.3-27.8-.2-17.6-3-35.2-9.1-49.6-20-12-9.1-21.9-21.5-26.8-35.8-.3-1-1.8-.5-1.5.5,5,15.7,15.7,29,29.1,38.5,15.4,10.9,34,16.8,52.5,19.5,4.8.7,9.8,1.2,14.7,1,4.7-.2,9.3-1.2,13.7-2.5,8.5-2.5,17-5.2,24.9-9.2,8-3.9,14.5-9.5,19.7-16.7,2.7-3.8,5.1-7.8,7.5-11.8,2.5-4.3,5.1-8.7,7.4-13.2,4.1-8.3,6.9-17,7.6-26.2.7-8.7-.2-17.4-2.4-25.9-4.5-17-14.6-32.2-27.1-44.4-.2-.2-.5-.4-.7-.6-2.8-2.8-5.7-5.5-9-8-.3-.2-.5-.4-.8-.6-3.3-2.6-6.7-5-10.2-7.3-4-2.5-8.2-4.7-12.7-6.4-3.3-1.1-6.8-1.7-10.2-2.1-6.2-1.8-12.5-2.8-19.2-1.9l.3.4h-.2ZM655.6,1773.6c-.7,15.3-6.2,30.5-15.1,43-9.6,13.3-22.8,23.1-38.2,28.6-16,5.7-33.7,6.9-50.3,3-8.1-1.9-15.9-5-23-9.4-7.8-4.7-14.5-11-21-17.4-6.3-6.2-12.1-12.6-15.3-21-2.8-7.4-3.6-15.2-3.6-23.1s.8-16.8,1.7-25.2c.5-4.8,1.3-9.7,2.9-14.3,1.5-4.3,3.6-8.4,6.1-12.2,9.5-14.5,23.6-25.8,40-31.5,4-1.4,8.2-2.4,12.4-3-1.6.7-3.1,1.4-4.6,2.1-15.5,7.5-29,18.9-38,33.6-4.8,7.9-8.4,16.5-10.2,25.6-1.8,8.9-2.2,18.5.2,27.2,2.4,8.8,8,16.4,13.6,23.4,5.7,7.2,12.2,13.6,20,18.5,11.3,7.1,24.8,10.5,38.2,10.1,14.9,1.2,30.1-3.2,42.4-11.9,13.8-9.7,24.1-24.3,27.8-40.8,2-9.1,2-18.8-.9-27.6-2.6-8.2-7.5-15.4-13.1-21.9-11.2-12.7-26.9-23.3-44.4-23.5-6.1,0-11.9,1.3-17.5,3.4-3.1.2-6.3.6-9.3,1.3-8.7,1.8-16.3,6.1-22.6,12.3-5.8,5.7-10.2,13-13.1,20.7-3.4,8.9-5.2,18.5-4.5,28,.6,9.2,3.6,18.2,7.9,26.2,4.1,8,9.4,15.5,16.3,21.3,3.6,3,7.7,5.4,11.9,7.5-11-2.9-21.1-8.6-29.2-16.7-6.1-6.1-11.7-13.2-16-20.7-4.6-8-6.4-16.7-5.8-25.9.9-17.2,8.5-33.8,20.1-46.5,10.9-11.9,25.2-20.6,40.5-25.3,2.2-.7,4.4-1.3,6.7-1.7h12c2.6,0,5.3,0,8,.2,9.1,2.4,18.2,6.3,26.3,10.8,25.8,14.3,42.4,43.3,41.1,72.8h-.4ZM553,1823.7c-15.6-7.5-26.1-22.9-31.1-39.1-5.1-16.8-1.8-35.6,7.8-50.2,4.2-6.5,9.9-12.1,16.7-15.6,1-.5,2-1,3-1.4-4.6,2.8-9.1,6.2-13.1,9.9-6.1,5.7-10.7,12.8-13.4,20.8-2.7,8.2-3.4,16.9-2.3,25.4,2,16.3,10.5,33.2,24.4,42.5,15,10.1,35.1,10.5,51.3,3,15.3-7,27.1-20.6,32.7-36.5,3-8.7,4.1-17.9,1.2-26.7-2.6-7.8-7.6-14.4-13-20.5-5-5.7-10.4-11.8-16.8-15.9,7.3,2.9,14.1,6.9,20.1,12,5.7,4.9,10.7,11,13.6,18,3.1,7.7,3.6,15.9,2.2,24-2.7,15.6-12.1,29.8-24.3,39.8-11.5,9.4-25.5,15-40.3,15.7-6.4-.5-12.7-2.2-18.6-4.9v-.2h-.1ZM611.7,1720c-9.4-5.3-20.2-9-31.1-10.3,4.1-.2,8.4,0,12.5,1.1,8.4,2.1,16.2,6.5,23.1,12.1-1.5-1-2.9-1.9-4.4-2.8h0ZM571.6,1713.5c3.1,0,6.3.2,9.4.6-4,0-8.2.7-12.1,1.4-5.8,1.1-12.1,2.2-17.8,4.4,3.7-2.3,7.7-4.3,11.8-6.1,2.9-.3,5.8-.4,8.7-.4h0,0ZM538,1741.9c-1.8-8.5,5-15.4,12.2-18.6,3.6-1.6,7.5-2.5,11.3-3.3,4.6-1,9.3-2,13.9-2.6,4.7-.6,9.5-.7,14.2.3,4.4,1,8.5,3.1,12,5.8,3.4,2.6,6.4,5.7,9.4,8.9,2.8,2.9,5.5,5.9,8.1,9.2,4.8,6.2,8.9,13.2,9.9,21.1,1,8.9-1.6,17.9-5.4,25.8-7.2,14.6-20,26.1-35.7,30.6-16.7,4.8-35.5,1.3-48-11.2s-17.4-28.7-16.6-44.9c.4-8,2.6-15.9,6.7-22.9,2.2-3.7,4.8-7.1,7.9-10-2.2,3.5-3.2,7.7-2.3,11.8.4,1.7,3.1,1.5,2.7-.2v.2h-.3ZM637.6,1781.9c-.7,2.4-1.5,4.8-2.5,7.2-6.1,14.3-17.2,26.3-31.2,33.2,7.7-4.3,14.5-10.1,20.2-16.8,5.7-6.9,10.6-14.9,13.5-23.6h0Z"/>
      <g>
        <path class="cls-2" d="M577.9,412.4c1.7,0,2.2-1,2.3-1.9.2-9.5-.7-19.1-2.7-28.5v-2.2c0-.3-.4-.3-.9-.2-.4-.4-1-.7-1.9-.8-1.5,0-2.5,1-2.3,1.9v.6c-.2.2-.4.4-.4.6.5,9.8,1.1,19.7,1.6,29.4,0,.5,1.3.1,2-.1.5.6,1.3,1.1,2.3,1.1h0Z"/>
        <path class="cls-2" d="M582,467.5c1.5-.3,2.7-1.3,2.6-2.4-.7-9.6-1.4-19.1-2.1-28.6,0-.6-.6-.9-1.3-1.1-.2-.6-.6-1.4-1.8-1.2-1,.2-1.4,1.1-1.6,1.8-.7.5-1.2,1.1-1.2,1.8.5,7.5,1.1,14.9,1.6,22.4v2.7c0,.5,0,1.3.5,1.8v1.6c0,1,1.9,1.4,3.2,1.1h0Z"/>
        <path class="cls-2" d="M581.1,709.9s.2,0,.3-.2c1.4,0,3.1-.5,3.6-1.4,2.9-5.4,2.3-11.2,1.8-16.8-.5-6.1-1-12.1-1.4-18,0-.7-1.2-1-2.2-1-.2-1.2-.4-2.4-.6-3.6,0-.7-2,.8-2.1.9-.7.6-1.7,1.6-1.6,2.4.2.9.3,1.8.4,2.7.5,5.7.9,11.5,1.4,17.1v1.1c0,4.5-.3,9-.8,13.5-.2.5-.4.9-.6,1.4-.4.7-.2,1.1.3,1.4v.8c0,.9,1.3,0,1.6-.2h-.1Z"/>
        <path class="cls-2" d="M585.6,874.5c.7-14.7.6-29.5-.3-44.4,0-1-1.7-1.9-3.2-1.7-1.8.2-2.4,1.4-2.4,2.4.9,14.4.9,28.8.3,43.2,0,1,.7,2.2,2.5,2.3,1.6,0,3.1-.9,3.2-1.9h0Z"/>
        <path class="cls-2" d="M577.4,1030.9c1.3-.3,2.1-1.7,2.3-2.5,2.5-12.5,3.5-25.2,2.7-37.9v-1.9c0-.9-1.4-.4-2,0-1,.5-2.4,1.5-2.4,2.4-.9,12.5-1.9,25-2.8,37.5,0,.5.4.6.8.5v.8c0,.6,0,1.6,1.4,1.2h0Z"/>
      </g>
      <g>
        <path class="cls-2" d="M581.9,1189.3c1.7,0,2.2-1,2.3-1.9.2-9.5-.7-19.1-2.7-28.5v-2.2c0-.3-.4-.3-.9-.2-.4-.4-1-.7-1.9-.8-1.5,0-2.5,1-2.3,1.9v.6c-.2.2-.4.4-.4.6.5,9.8,1.1,19.7,1.6,29.4,0,.5,1.3,0,2,0,.5.6,1.3,1.1,2.3,1.1h0Z"/>
        <path class="cls-2" d="M585.1,1447.6s.2,0,.3-.2c1.4,0,3.1-.5,3.6-1.4,2.9-5.4,2.3-11.2,1.8-16.8-.5-6.1-1-12.1-1.4-18,0-.7-1.2-1-2.2-1-.2-1.2-.4-2.4-.6-3.6,0-.7-2,.8-2.1.9-.7.6-1.7,1.6-1.6,2.4.2.9.3,1.8.4,2.7.5,5.7.9,11.5,1.4,17.1v1.1c0,4.5-.3,9-.8,13.5-.2.5-.4.9-.6,1.4-.4.7-.2,1.1.3,1.4v.8c0,.9,1.3,0,1.6-.2h-.1Z"/>
        <path class="cls-2" d="M588,1608.7c1.8-14.1,2.4-28.3,1.7-42.5,0-.9-1.2-1.7-2.6-1.4-1.5.3-2.3,1.6-2.3,2.5.7,13.8,0,27.6-1.6,41.4,0,.9.3,2,1.9,2s2.8-1.2,2.9-2.1h0Z"/>
        <path class="cls-2" d="M589.7,1677.7c.7-14.7.6-29.5-.3-44.4,0-1-1.7-1.9-3.2-1.7-1.8.2-2.4,1.4-2.4,2.4.9,14.4.9,28.8.3,43.2,0,1,.7,2.2,2.5,2.3,1.6,0,3.1-.9,3.2-1.9h0Z"/>
      </g>
      <g>
        <path class="cls-2" d="M261,961.8c.1-2.5.2-4.9.3-7.5.4-7,.7-13.8,1.1-20.8h-4.4c-.2,4.6-.5,9.4-.7,14-.2,4.7-.5,9.4-.7,14.1h4.4v.2h0Z"/>
        <path class="cls-2" d="M262.5,1112.4l-4.4.2c0,4.4,0,8.8-.2,13.2-.2,5.6-.7,11.3-.5,16.9l4.6-.2c-.3-3.6-.4-7.4-.1-11.2.5-6.4.6-12.7.7-19.1h-.1v.2Z"/>
      </g>
      <path class="cls-2" d="M252.9,783.5c-19.7-4.6-39.4,1.3-53.1,16.2-6.3,6.9-10.6,14.8-13.3,23.4-4.6,10.4-7.6,21.6-8.4,32.7-1.2,16.7,3.8,34,16.8,45.2,13.5,11.7,32,15.7,49.5,14.3,18.5-1.5,39.7-7.1,54.9-18.2,13.7-10.2,20.7-26.4,20.3-43.4-1-35.8-33.8-62.5-66.6-70.3h-.1,0ZM302.2,881.5c-9.6,13-26.8,18.4-41.7,22.2-16,4-33.7,5-49.1-2.1-14-6.6-23.2-19-25-34.4-.4-3.1-.4-6.3-.3-9.4,1.7.3,3.7-.8,3.6-2.8-.2-8.9.6-18,3-26.7,1.2-2.8,2.4-5.6,3.8-8.4,3.5-7,8.4-14.2,14.3-19.8,8.6-6.8,19.2-10.7,30.3-10,15.2.9,30.9,8.7,43,17.7,11.3,8.6,20.6,20.3,24.3,34.1,3.5,13.2,2.1,28.3-6.2,39.5h0Z"/>
      <path class="cls-2" d="M252.9,969c-19.7-4.6-39.4,1.3-53.1,16.2-6.3,6.9-10.6,14.8-13.3,23.4-4.6,10.4-7.6,21.6-8.4,32.7-1.2,16.7,3.8,34,16.8,45.2,13.5,11.7,32,15.7,49.5,14.3,18.5-1.5,39.7-7.1,54.9-18.2,13.7-10.2,20.7-26.4,20.3-43.4-1-35.8-33.8-62.5-66.6-70.3h-.1,0ZM302.2,1067c-9.6,13-26.8,18.4-41.7,22.2-16,4-33.7,5-49.1-2.1-14-6.6-23.2-19-25-34.4-.4-3.1-.4-6.3-.3-9.4,1.7.3,3.7-.8,3.6-2.8-.2-8.9.6-18,3-26.7,1.2-2.8,2.4-5.6,3.8-8.4,3.5-7,8.4-14.2,14.3-19.8,8.6-6.8,19.2-10.7,30.3-10,15.2.9,30.9,8.7,43,17.7,11.3,8.6,20.6,20.3,24.3,34.1,3.5,13.2,2.1,28.3-6.2,39.5h0Z"/>
      <path class="cls-2" d="M252.9,1154.5c-19.7-4.6-39.4,1.3-53.1,16.2-6.3,6.9-10.6,14.8-13.3,23.4-4.6,10.4-7.6,21.6-8.4,32.7-1.2,16.7,3.8,34,16.8,45.2,13.5,11.7,32,15.7,49.5,14.3,18.5-1.5,39.7-7.1,54.9-18.2,13.7-10.2,20.7-26.4,20.3-43.4-1-35.8-33.8-62.5-66.6-70.3h-.1,0ZM302.2,1252.6c-9.6,13-26.8,18.4-41.7,22.2-16,4-33.7,5-49.1-2.1-14-6.6-23.2-19-25-34.4-.4-3.1-.4-6.3-.3-9.4,1.7.3,3.7-.8,3.6-2.8-.2-8.9.6-18,3-26.7,1.2-2.8,2.4-5.6,3.8-8.4,3.5-7,8.4-14.2,14.3-19.8,8.6-6.8,19.2-10.7,30.3-10,15.2.9,30.9,8.7,43,17.7,11.3,8.6,20.6,20.3,24.3,34.1,3.5,13.2,2.1,28.3-6.2,39.5h0Z"/>
      <path class="cls-3" d="M630.6,918.9c-5-13.4-14.6-25.6-26.2-33.9-11.2-8.1-24.8-12.2-38.6-10.9-13.2,1.3-26.1,7.6-34.1,18.5-7.8,10.8-9.9,24.5-8.2,37.5,0,5.3.6,10.6,2.1,15.7,2.2,7.6,6.9,13.8,12.6,19,2.9,2.6,6.1,4.9,9.3,7.2,3.4,2.4,6.9,4.8,10.5,6.9,6.9,3.7,14.4,5.7,22.3,5.3,15.2-.6,29-8.8,38.2-20.8,4.5-5.9,8-12.6,10.4-19.7,2.7-7.9,4.6-16.7,1.6-24.8h.1ZM629,931.1c-.8,7.4-3.5,14.7-6.9,21.2-6.5,12.5-17,23.1-30.7,27.3-6.9,2.2-14.3,2.8-21.4,1.3-6.2-1.2-11.6-4.1-16.8-7.5.3,0,.6.2.9.2.6,0,.9-.8.3-1-1.7-.4-3.3-.9-4.8-1.6,0,0-.2-.2-.3-.2-3.4-2.4-7-4.8-10.2-7.7-4.9-5.5-8.5-12.6-10.7-19.3-1.7-5.1-2.8-10.7-3.3-16.2,0-5.7.3-11.6,1.4-17.2,1.4-7.2,4.5-14,10.1-19.1,2.4-2.2,5.3-3.9,8.6-4.9.3,0,.2-.5,0-.4-2.3.5-4.5,1.4-6.5,2.6,5-4.7,11.3-8.2,18.2-10.2,12.4-3.5,25.7-2.2,37.3,3.4,12,5.9,21.8,15.9,28.5,27.4,1.7,2.9,3.3,6.1,4.6,9.3,1.6,4,2.2,8.1,1.7,12.4h0v.2h0Z"/>
      <path class="cls-3" d="M624.6,1082c-.2-.6-.7-.8-1.1-.7-1.7-9.4-5.9-18.4-12.7-25.2-7.3-7.5-17.4-12.6-26.9-16.7-9.2-4-19.2-6.2-29-3.7-18.3,4.5-31,21.2-34.1,39.2-1.8,10.3-1,21,1.6,31.1,2.4,9.2,6.2,18.5,12.6,25.5,8.3,9,19.6,11.3,31.1,10.3,6.7.5,13.4-.2,19.7-2.1,10.8-3.2,20.6-9.7,27.5-18.4,7-7,12-15.6,12.9-26,.4-4.5,0-9-1.6-13.3h0ZM570,1038.6c9.8,1.8,19.1,6.8,27.5,11.9,7.6,4.5,13.9,10.3,18,18.2,3.8,7.3,5.5,15.5,5.3,23.7-.3,10.7-4.4,20.5-11.2,28.3-2.7,2.6-5.8,5-9.1,7-7.9,4.7-16.6,7.8-25.6,9.9-2.4.5-4.8,1-7.4,1.3-7-.3-13.8-2.1-20-5.6-8.3-4.7-13.4-12.5-16.7-21.3-3.6-9.6-6.8-20.1-7.1-30.4-.5-16.7,9.6-32.2,24.5-39.5,3-1.5,6.1-2.7,9.4-3.6,4-.7,8.2-.7,12.2,0v.2h.2,0ZM546.2,1136.5c-8.1-3.7-13.5-11.2-17-19.2-2.6-5.8-4.5-12.2-5.5-18.7v.2c2.5,9.7,5.5,20,11.9,27.9,3.9,4.9,9,8.7,14.6,11.1-1.3-.4-2.6-.9-3.9-1.4h0Z"/>
      <path class="cls-2" d="M247.7,777.2c-5.9-51.9-11.9-103.9-14.4-156.1-2.5-51.6-1-103,5.4-154.4,6.3-50.1,15.2-100.1,15.7-150.8.2-24.7-1.7-49.6-7-73.8s-6.3-22.4,1.3-30.6c6.4-6.9,17.2-7.2,25.9-7.7,47.1-2.4,94.1-7.5,141.2-10.4s11-.7,16.6-.9,4-6.3,0-6.1c-48,2.4-95.8,7.6-143.7,10.6-17.1,1.1-45.8-1.1-49.8,21.4-2,11,2.2,22.4,4.2,33.1s3.8,25.5,4.6,38.4c3,51.3-5,102.4-11.9,153.1-3.5,25.4-6.6,50.9-8.3,76.5-1.7,26.5-1.9,53.1-1.1,79.6,1.5,53,7.1,105.9,13,158.5.7,6.6,1.5,13.1,2.2,19.7s6.6,3.9,6.1,0h0Z"/>
      <path class="cls-2" d="M250,1279.8c-3,47.2-5.6,94.5-7,141.8s-1.7,85.7-1.2,128.5c.6,46.3,2.4,92.7,4.7,138.9.6,11.2.7,22.6,2.5,33.8s5.2,19.7,12.8,26.6c7.6,6.9,17.3,9.9,27.1,11.4,11.1,1.7,22.5,2.1,33.8,2.6,49.4,2.1,99.1-.7,148.1-7.8,5.9-.9,11.7-1.8,17.6-2.8s2.2-6.6-1.6-5.9c-47.9,8.1-96.6,11.8-145.1,10.9s-24.1-.7-36.2-1.5-20.4-1.4-29.7-5.3-15.5-11.1-18.5-20.5-3.4-20.4-3.9-30.7c-2.4-46.2-4.2-92.4-5-138.6-.7-42-.5-84.1.6-126.1,1.2-45.6,3.5-91.1,6.3-136.6.4-6.3.8-12.6,1.2-18.8s-5.9-3.9-6.1,0h-.4,0Z"/>
    </g>
  </g>
</svg>