<?xml version="1.0" encoding="UTF-8"?>
<svg xmlns="http://www.w3.org/2000/svg" version="1.1" viewBox="0 0 1080 1920">
  <defs>
    <style>
      .cls-1 {
        stroke: #000;
        stroke-linecap: round;
        stroke-linejoin: round;
        stroke-width: 2px;
      }
    </style>
  </defs>
  <!-- Generator: Adobe Illustrator 28.6.0, SVG Export Plug-In . SVG Version: 1.2.0 Build 709)  -->
  <g>
    <g id="Capa_1">
      <path d="M741.9,262.5c7.8-18.9,11.8-39.3,10.6-59.8-.6-10.6-2.8-21-7.2-30.7-4.2-9.3-10.2-17.7-16.7-25.4-9.1-10.8-19.4-20.5-30.8-28.9-.6-.6-1.3-1.2-1.9-1.7-26.8-23-61.4-34.8-96.8-32.6-18.7,1.2-37.1,6.1-53.7,14.5,1-1.5-.9-3.9-2.9-2.9-29.4,14.4-52.9,39.4-67.3,68.8-14.4,29.4-19.8,63.2-13.4,95.4,1.6,8,3.9,15.7,6.9,23.3.1.6.2,1.3.4,1.9,3.7,16.8,11.2,32.6,22.4,45.6,11,12.7,25.2,22.1,40.7,28.3,3.7,1.5,7.5,2.8,11.3,3.9,19.5,9.7,40.9,15.5,62.8,16,19.1.4,38.7-3,56-11.4,16.8-8.1,29.9-21.3,40.6-36.3,7.8-7.7,14.8-16.3,20.7-25.7,8.2-13,14.3-27.3,18.2-42.1ZM512.6,334.3c-18.4-16.3-32.8-37-40.9-60.1-1.1-7.9-1.6-15.8-1.4-23.8,2.5,11.8,6.7,23.2,12.4,33.8,3.6,8.4,8.1,16.5,13.3,24,10.2,16.5,23.9,30.8,40.4,41.1,8.7,5.4,18.1,9.7,27.8,12.8-3.9-.6-7.9-1.3-11.7-2.2-14.5-6.4-28-15.1-39.9-25.6ZM729.7,171.8c-2.1-3.4-4.3-6.8-6.6-10.1-10.9-15.4-23.5-29.7-37.9-42-5.5-4.7-11.3-9.1-17.3-13.1,7.1,3.5,13.9,7.4,20.2,11.8,3,2,5.8,4.2,8.7,6.4,13.9,13.2,25.2,29.3,32.9,47ZM631.6,358.3c-4.6,1.1-9.2,2-13.9,2.8-5.4.4-10.9.6-16.4.3-29.2-1.6-57.8-13.3-80-32.4,2.7,2,5.5,4,8.4,5.8,32.2,20.3,73,26.9,109.9,17.7,18.4-4.6,35.7-13.1,51-24.5,0,0-.2.2-.3.3-6.4,6.1-13.4,11.4-20.8,16-11.9,6.4-24.7,10.9-37.9,14ZM507.2,163.5c6.9-10,14.6-19.6,23-28.5,15.7-12.4,34.3-21.2,53.8-25.5,32.4-7.2,66-1.1,93.7,17.1,8.8,5.8,16.9,12.7,24.2,20.4.5.9,1,1.8,1.5,2.7,4.8,8.9,7.7,18.7,10.9,28.2,6.7,20.3,12.9,41.2,13.5,62.7.6,20.9-5,41.2-15.2,59.1-20.2,24.1-48,42.1-78.9,48.7-36.3,7.8-75.8,0-106.3-21.1-14.1-9.8-26.1-22.6-35.3-37.1-3.9-8.9-6.9-18.2-8.8-27.7-3.2-15.9-3.2-32.5.4-48.4,4.1-18.3,12.8-35.2,23.5-50.5ZM570.6,107.4c2.5-.5,5.1-1,7.6-1.4-10.1,2.6-19.8,6.4-29,11.2,2.9-2.3,5.8-4.5,8.8-6.6,4.1-1.3,8.3-2.4,12.6-3.3ZM729.5,270.1c2.9-12,4-24.6,2.9-37.2-1.9-22.2-8.8-43.6-15.9-64.6-.6-1.8-1.2-3.7-1.9-5.5,8.4,12.3,14.7,26,18.3,40.5,5.1,20.5,4.2,42-1.4,62.2-.7,1.5-1.3,3.1-2,4.6ZM626.8,100.8c-17.3-2.6-35.1-2.5-52.3.5,5.9-2.7,12-4.8,18.5-6.2,8.3-1.8,16.7-2.4,25-2,14.2,2.5,27.8,8.1,40.3,15.5-10.2-3.7-20.9-6.3-31.4-7.9ZM554.4,106.3c-12.5,4.1-24.4,10.1-34.6,18.3,15.8-14,34.8-24.6,55.2-29.8-7.2,3.1-14.1,6.9-20.5,11.4ZM519.6,131.3c6.2-5.4,13.1-9.8,20.4-13.5-.7.6-1.4,1.3-2.1,1.9-5.5,5.2-10.8,10.6-15.9,16.3-8.2,7.4-15.6,15.8-21.7,25.1-.7,1-.3,2,.4,2.6-.3.5-.7,1-1,1.5-10.4,16-18.6,33.7-21.8,52.6-1.2,6.9-1.7,13.8-1.7,20.8-.4-4.2-.6-8.3-.6-12.5,0-5.3.2-10.7.8-16,2.9-11.2,6.8-22,11.4-32.4,7.6-17.3,17.5-34,31.9-46.5ZM496.4,151.2c-3.4,5.4-6.5,11-9.3,16.7.9-2.2,1.9-4.4,3-6.5,2-3.5,4.1-6.9,6.3-10.2ZM746.5,210.7c0,1.5,0,3-.1,4.5,0-.5-.1-1-.2-1.4-.3-3.2-.6-6.4-1.1-9.6-2.5-16.1-7.9-31.8-15.6-46.3,5.1,6.8,9.5,14.2,12.4,22.1,3.5,9.8,4.8,20.3,4.7,30.7ZM481.8,161.3c10.2-19.6,24.5-36.9,42.1-50.1-6.7,5.2-13,11.1-18.5,17.7-4.6,5.4-8.7,11.1-12.4,17-.4.6-.8,1.1-1.2,1.7-16.2,24-25.1,52.7-24,81.5-1,6.9-1.7,13.9-1.9,20.9-4.4-30.2,1.9-61.8,15.9-88.7ZM492.7,324.4c-4.1-5.1-7.6-10.6-10.5-16.4,8.6,13.1,19.3,24.8,31.4,34.7,1.5,1.2,3,2.4,4.5,3.6-9.6-5.8-18.3-13.1-25.5-21.8ZM652.8,364.3c-16.8,6.5-35.1,8.7-53,7.5-8.4-.6-16.6-2-24.7-4.1,5.8.4,11.6.6,17.5.4,15.9,1.7,32.1.6,47.6-3,12.7-3,24.7-7.8,35.8-14.2-6.9,5.6-14.6,10.1-23.1,13.4Z"/>
      <path class="cls-1" d="M652.5,770.1c-.2-.6-.7-.8-1.1-.7-1.7-9.3-5.9-18.2-12.6-25-7.2-7.4-17.3-12.5-26.7-16.6-9.1-4-19-6.1-28.8-3.7-18.1,4.5-30.7,21-33.8,38.9-1.8,10.2-1,20.8,1.6,30.8,2.4,9.1,6.1,18.3,12.5,25.3,8.2,8.9,19.4,11.2,30.8,10.2,6.6.5,13.3-.2,19.5-2.1,10.7-3.2,20.4-9.6,27.3-18.2,6.9-6.9,11.9-15.5,12.8-25.8.4-4.5-.1-8.9-1.6-13.2ZM598.4,727c9.7,1.8,18.9,6.7,27.3,11.8,7.5,4.5,13.8,10.2,17.9,18,3.8,7.2,5.5,15.4,5.3,23.5-.3,10.6-4.4,20.3-11.1,28.1-2.7,2.6-5.8,5-9,6.9-7.8,4.7-16.5,7.7-25.4,9.8-2.4.5-4.8,1-7.3,1.3-6.9-.3-13.7-2.1-19.8-5.6-8.2-4.7-13.3-12.4-16.6-21.1-3.6-9.5-6.7-19.9-7-30.1-.5-16.6,9.5-31.9,24.3-39.2,3-1.5,6-2.7,9.3-3.6,4-.7,8.1-.7,12.1,0ZM574.8,824.1c-8-3.7-13.4-11.1-16.9-19-2.6-5.8-4.5-12.1-5.5-18.5,0,0,0,.1,0,.2,2.5,9.6,5.5,19.8,11.8,27.7,3.9,4.9,8.9,8.6,14.5,11-1.3-.4-2.6-.9-3.9-1.4Z"/>
      <path class="cls-1" d="M652.5,1088.5c-.2-.6-.7-.8-1.1-.7-1.7-9.3-5.9-18.2-12.6-25-7.2-7.4-17.3-12.5-26.7-16.6-9.1-4-19-6.1-28.8-3.7-18.1,4.5-30.7,21-33.8,38.9-1.8,10.2-1,20.8,1.6,30.8,2.4,9.1,6.1,18.3,12.5,25.3,8.2,8.9,19.4,11.2,30.8,10.2,6.6.5,13.3-.2,19.5-2.1,10.7-3.2,20.4-9.6,27.3-18.2,6.9-6.9,11.9-15.5,12.8-25.8.4-4.5-.1-8.9-1.6-13.2ZM598.4,1045.4c9.7,1.8,18.9,6.7,27.3,11.8,7.5,4.5,13.8,10.2,17.9,18,3.8,7.2,5.5,15.4,5.3,23.5-.3,10.6-4.4,20.3-11.1,28.1-2.7,2.6-5.8,5-9,6.9-7.8,4.7-16.5,7.7-25.4,9.8-2.4.5-4.8,1-7.3,1.3-6.9-.3-13.7-2.1-19.8-5.6-8.2-4.7-13.3-12.4-16.6-21.1-3.6-9.5-6.7-19.9-7-30.1-.5-16.6,9.5-31.9,24.3-39.2,3-1.5,6-2.7,9.3-3.6,4-.7,8.1-.7,12.1,0ZM574.8,1142.5c-8-3.7-13.4-11.1-16.9-19-2.6-5.8-4.5-12.1-5.5-18.5,0,0,0,.1,0,.2,2.5,9.6,5.5,19.8,11.8,27.7,3.9,4.9,8.9,8.6,14.5,11-1.3-.4-2.6-.9-3.9-1.4Z"/>
      <path d="M652.5,1500.5c-.2-.6-.7-.8-1.1-.7-1.7-9.3-5.9-18.2-12.6-25-7.2-7.4-17.3-12.5-26.7-16.6-9.1-4-19-6.1-28.8-3.7-18.1,4.5-30.7,21-33.8,38.9-1.8,10.2-1,20.8,1.6,30.8,2.4,9.1,6.1,18.3,12.5,25.3,8.2,8.9,19.4,11.2,30.8,10.2,6.6.5,13.3-.2,19.5-2.1,10.7-3.2,20.4-9.6,27.3-18.2,6.9-6.9,11.9-15.5,12.8-25.8.4-4.5-.1-8.9-1.6-13.2ZM598.4,1457.4c9.7,1.8,18.9,6.7,27.3,11.8,7.5,4.5,13.8,10.2,17.9,18,3.8,7.2,5.5,15.4,5.3,23.5-.3,10.6-4.4,20.3-11.1,28.1-2.7,2.6-5.8,5-9,6.9-7.8,4.7-16.5,7.7-25.4,9.8-2.4.5-4.8,1-7.3,1.3-6.9-.3-13.7-2.1-19.8-5.6-8.2-4.7-13.3-12.4-16.6-21.1-3.6-9.5-6.7-19.9-7-30.1-.5-16.6,9.5-31.9,24.3-39.2,3-1.5,6-2.7,9.3-3.6,4-.7,8.1-.7,12.1,0ZM574.8,1554.5c-8-3.7-13.4-11.1-16.9-19-2.6-5.8-4.5-12.1-5.5-18.5,0,0,0,.1,0,.2,2.5,9.6,5.5,19.8,11.8,27.7,3.9,4.9,8.9,8.6,14.5,11-1.3-.4-2.6-.9-3.9-1.4Z"/>
      <path d="M638.2,659.1c2.3-1.3,4.5-2.8,6.6-4.3,2.4-1.1,4.8-2.3,7.1-3.5,8-4.2,15.3-9.5,21.4-16.1,12.3-13,20.6-30.9,21.5-48.8.5-9.8-2.4-19.2-5.2-28.5-2.4-8-5-16-8.9-23.4-3.8-7.3-8.8-14-15.6-18.8-7.5-5.4-16.7-8.9-25.3-12.1-8.6-3.2-17.5-5.4-26.7-5.8-8.7-.4-17.4.6-25.8,2.9-17.2,4.7-33,14.4-44.8,27.9-10.8,12.3-17.5,27.7-19.5,43.9-2,15.8.5,32.2,7.6,46.5,3,6,6.8,11.7,11.2,16.8-5-4.6-9.5-9.7-13.3-15.4-4.5-6.9-8-14.6-9.8-22.6-2.1-8.9-1.8-18-.6-27,1.1-8.7,2.2-17.8,4.9-26.2,2.6-8.2,7.4-15.1,13.5-21.1,5.9-5.9,12.4-11.4,19.2-16.3,7.6-5.5,16.6-8,25.7-9.9,17.4-3.7,35.8-4.5,53,.3,14.4,4,28,11.8,37.8,23.2.7.8,1.9-.3,1.2-1.1-10.4-12.7-25.1-21-41-24.8-18.2-4.4-37.4-3.1-55.6,1.3-4.7,1.1-9.5,2.4-13.9,4.4-4.3,1.9-8.1,4.5-11.7,7.4-6.8,5.4-13.8,11-19.6,17.5-5.9,6.6-9.9,14.1-12,22.6-1.1,4.5-1.9,9.1-2.6,13.6-.8,4.9-1.5,9.9-2,14.9-.8,9.1-.1,18.2,2.6,26.9,2.5,8.3,6.6,16,11.7,23,10.4,14,25.2,24.3,41.2,31,.3.1.6.2.9.3,3.6,1.6,7.3,3,11.2,4,.3,0,.6.2,1,.2,4,1.2,8,2.2,12.1,3,4.6.9,9.3,1.4,14,1.2,3.5-.2,6.8-.9,10.1-1.8,6.4-.6,12.6-1.9,18.4-5.2ZM529.5,607.8c-5-14.4-5.4-30.4-1.7-45.1,4-15.7,12.6-29.6,24.7-40.4,12.7-11.2,28.6-18.7,45.3-21.1,8.2-1.2,16.5-1.2,24.7.2,8.9,1.5,17.4,4.9,25.7,8.4,8,3.4,15.8,7.2,21.8,13.8,5.3,5.8,8.9,12.8,11.8,20,3.1,7.8,5.4,15.8,7.6,23.9,1.3,4.7,2.3,9.4,2.5,14.2.2,4.5-.3,9-1.2,13.4-3.4,16.8-12.4,32.4-25.4,43.6-3.2,2.8-6.7,5.2-10.3,7.3,1.2-1.2,2.4-2.4,3.5-3.7,11.6-12.5,19.9-28,22.8-44.8,1.6-9,1.6-18.3,0-27.3-1.6-8.8-4.7-17.8-10.1-25-5.4-7.2-13.3-12.2-21.1-16.6-7.9-4.5-16.2-8.1-25.2-9.7-13-2.4-26.7-.6-38.9,4.7-14.2,4.3-26.6,14-34.7,26.4-9.2,14-13.3,31.3-10.7,47.9,1.4,9.1,5,18,10.9,25.1,5.4,6.6,12.5,11.5,20.1,15.4,15,7.6,33.3,11.6,49.5,5.4,5.6-2.1,10.5-5.6,14.9-9.5,2.8-1.4,5.5-2.9,8.1-4.6,7.3-4.9,12.9-11.6,16.4-19.6,3.2-7.5,4.6-15.7,4.6-23.8,0-9.5-2-18.9-6-27.5-3.9-8.3-9.9-15.4-16.8-21.3-6.8-5.8-14.3-10.9-22.9-13.7-4.4-1.4-9-2.3-13.7-2.5,11.2-1.4,22.6.2,33.1,4.8,7.8,3.4,15.6,7.9,22.3,13.2,7.2,5.7,11.9,13.1,14.8,21.8,5.4,16.2,4.5,34.2-1.5,50.1-5.6,14.9-15.7,28.2-28.2,38.1-1.8,1.4-3.6,2.8-5.5,4-3.7,1.5-7.4,3-11.1,4.4-2.5.9-4.9,1.9-7.4,2.7-9.2,1.1-19,.8-28.2-.4-29-3.8-54.9-24.4-64.5-52.1ZM605.9,524.1c17.1,1.1,32.5,11.6,43,24.7,10.9,13.7,14.7,32.1,11.2,49.2-1.5,7.5-4.7,14.8-9.7,20.6-.7.8-1.5,1.6-2.3,2.4,3.3-4.3,6.2-9,8.4-13.9,3.4-7.5,5.2-15.7,4.7-24-.4-8.5-3-16.8-7.1-24.3-7.9-14.3-21.7-26.7-38-30.2-17.6-3.8-36.2,3.2-48.4,15.9-11.6,12.1-17.5,28.9-16.8,45.5.4,9.1,2.8,18,8.7,25.1,5.2,6.2,12.3,10.5,19.4,14.2,6.7,3.4,13.9,7.1,21.4,8.5-7.8,0-15.6-1.2-22.9-3.7-7.1-2.4-13.8-6.2-19.1-11.6-5.7-5.9-9.2-13.4-10.8-21.3-3.2-15.4.3-32,7.9-45.6,7.1-12.8,18.1-23.2,31.4-29.2,6.1-1.8,12.5-2.6,19-2.2ZM589.6,641.1c10.6,1.5,21.8.9,32.4-1.8-3.7,1.7-7.7,3-11.9,3.6-8.5,1.2-17.3,0-25.7-2.7,1.7.4,3.4.7,5.1.9ZM628.9,632.5c-2.9,1.1-5.9,2.1-8.9,2.8,3.7-1.6,7.3-3.6,10.7-5.7,5-3.2,10.4-6.4,14.8-10.6-2.6,3.5-5.5,6.8-8.7,9.9-2.6,1.4-5.2,2.5-7.9,3.6ZM649.5,594.1c4.7,7.1,1,16-4.5,21.5-2.8,2.8-6,5.1-9.2,7.2-3.9,2.6-7.8,5.2-11.9,7.5-4.1,2.3-8.5,4.1-13.2,4.9-4.5.7-8.9.2-13.3-1-4.1-1.2-8-3-11.9-4.8-3.6-1.7-7.3-3.5-10.8-5.5-6.7-3.9-13-8.9-16.8-15.9-4.2-7.8-5-17.1-4.4-25.8,1.3-16.1,8.9-31.3,21.7-41.3,13.7-10.5,32.3-14.2,48.4-7.2,14.8,6.4,26.5,20.1,31.7,35.3,2.6,7.5,3.4,15.6,2.2,23.5-.7,4.2-1.9,8.2-3.6,12.1.7-4,.2-8.2-2.2-11.8-.9-1.4-3.4-.3-2.4,1.2ZM543.1,593.5c-.2-2.5-.4-5-.3-7.5.4-15.4,6.3-30.6,16.6-42-5.4,6.8-9.7,14.6-12.5,22.9-2.8,8.4-4.3,17.6-3.8,26.7Z"/>
      <path d="M688.6,1289.1c-.9-2.5-1.9-4.9-3-7.3-.6-2.6-1.3-5.1-2.1-7.6-2.6-8.6-6.5-16.8-11.8-24-10.5-14.4-26.6-25.9-44.1-30.1-9.6-2.3-19.3-1.1-29,0-8.3.9-16.6,2-24.6,4.4-7.9,2.4-15.4,6.1-21.3,11.8-6.7,6.4-11.8,14.8-16.5,22.7-4.7,7.9-8.5,16.2-10.6,25.1-2,8.5-2.6,17.2-1.9,25.9,1.4,17.8,8.1,35.1,19.1,49.1,10.1,12.9,24.1,22.3,39.6,27.3,15.2,4.8,31.7,5.4,47.1,1,6.5-1.9,12.7-4.6,18.6-8-5.4,4.1-11.3,7.6-17.6,10.2-7.6,3.2-15.8,5.1-24,5.5-9.1.4-18-1.6-26.7-4.4-8.4-2.7-17.1-5.5-24.8-9.6-7.6-4.1-13.5-10.1-18.3-17.1-4.7-6.9-9-14.3-12.5-21.9-4-8.5-4.8-17.8-5-27.1-.5-17.8,2.1-36,10-52.1,6.6-13.4,16.7-25.4,29.7-32.9.9-.5,0-1.9-.8-1.4-14.4,7.9-25.2,20.8-31.9,35.7-7.7,17.1-9.9,36.2-9,54.9.3,4.9.7,9.8,1.8,14.5,1.1,4.5,2.9,8.8,5.1,12.9,4.1,7.7,8.3,15.6,13.6,22.5,5.4,7,12,12.3,20,16,4.2,1.9,8.6,3.5,12.9,5.1,4.7,1.7,9.4,3.3,14.3,4.7,8.8,2.4,17.8,3.4,26.9,2.4,8.6-1,16.9-3.5,24.7-7.3,15.7-7.6,28.6-20.3,38-34.8.2-.3.3-.5.5-.8,2.3-3.3,4.3-6.7,6-10.2.1-.3.3-.6.4-.9,1.9-3.7,3.6-7.5,5.2-11.3,1.7-4.4,3.1-8.9,3.7-13.6.5-3.4.4-6.9.1-10.3.6-6.4.4-12.7-1.8-19ZM618.2,1386.6c-15.1,2.3-30.9-.2-44.7-6.6-14.7-6.8-26.8-17.8-35.1-31.7-8.7-14.5-13.1-31.5-12.4-48.4.3-8.3,1.9-16.4,4.8-24.2,3.2-8.5,8-16.2,13-23.8,4.8-7.3,10-14.2,17.5-18.9,6.6-4.1,14.2-6.4,21.8-7.9,8.2-1.6,16.6-2.4,24.9-3.1,4.8-.4,9.7-.6,14.5.1,4.5.6,8.8,1.9,13,3.6,15.9,6.4,29.6,18.1,38.2,33,2.1,3.7,3.9,7.5,5.3,11.4-1-1.4-1.9-2.8-2.9-4.1-10.2-13.7-23.8-24.7-39.9-30.7-8.6-3.2-17.7-5-26.9-5-9,0-18.3,1.4-26.5,5.3-8.1,4-14.4,10.9-20.2,17.7-5.9,6.9-10.9,14.5-14.2,23-4.7,12.4-5.5,26.2-2.6,39.1,1.6,14.8,8.9,28.7,19.6,39,12.1,11.6,28.3,18.9,45.1,19.3,9.2.3,18.6-1.6,26.7-6.1,7.5-4.1,13.6-10.2,18.8-16.9,10.3-13.3,17.6-30.6,14.4-47.7-1.1-5.9-3.5-11.3-6.6-16.4-.8-3-1.8-5.9-3-8.8-3.4-8-9-14.8-16.2-19.7-6.7-4.5-14.6-7.4-22.6-8.9-9.3-1.7-19-1.6-28.1.9-8.8,2.3-17,6.9-24.1,12.6-7,5.6-13.3,12.1-17.6,20-2.2,4.1-3.9,8.5-5,13,.7-11.2,4.4-22.1,10.8-31.6,4.8-7.1,10.6-13.8,17-19.5,6.9-6.1,15.1-9.3,24.1-10.6,16.9-2.3,34.5,1.9,49,10.7,13.6,8.3,24.8,20.6,32.3,34.7,1.1,2,2.1,4,2.9,6.1.8,3.9,1.6,7.8,2.3,11.7.5,2.6.9,5.2,1.3,7.8-.6,9.3-2.7,18.8-5.5,27.6-9.1,27.8-34,49.4-63.1,53.8ZM550,1296c4.3-16.6,17.3-29.8,32.2-37.7,15.4-8.2,34.3-8.5,50.4-2,7.1,2.9,13.7,7.3,18.4,13.4.7.9,1.3,1.8,1.9,2.7-3.7-4-7.7-7.7-12.1-10.8-6.8-4.8-14.5-8-22.7-9.1-8.4-1.1-17.1-.1-25.2,2.5-15.5,5.1-30.3,16.4-36.7,31.8-7,16.6-3.5,36.1,6.7,50.5,9.7,13.6,25.2,22.5,41.7,24.9,9,1.3,18.2.6,26.3-3.9,7.1-4,12.6-10.1,17.5-16.5,4.6-6,9.5-12.3,12.3-19.4-1.4,7.7-4,15.1-7.8,21.8-3.7,6.5-8.7,12.5-15,16.6-6.8,4.5-14.8,6.6-23,6.7-15.7.3-31.4-6.2-43.4-16.1-11.3-9.4-19.5-22-22.9-36.3-.7-6.3-.3-12.7,1.3-19ZM662,1333.6c3.5-10.1,4.9-21.3,4.2-32.2,1,4,1.5,8.1,1.3,12.3-.4,8.6-3.2,17.1-7.4,24.8.7-1.6,1.3-3.2,1.9-4.9ZM660.7,1293.4c.6,3.1.9,6.2,1.2,9.3-.9-3.9-2.2-7.8-3.7-11.6-2.2-5.5-4.4-11.4-7.7-16.5,3,3.2,5.7,6.7,8.1,10.4.9,2.8,1.5,5.6,2.1,8.4ZM626.7,1266.1c7.9-3.3,15.9,1.9,20.3,8.4,2.2,3.2,3.9,6.8,5.4,10.4,1.9,4.3,3.7,8.6,5.2,13.1,1.5,4.5,2.5,9.1,2.4,13.8-.1,4.5-1.4,8.8-3.5,12.8-1.9,3.8-4.4,7.3-6.9,10.8-2.4,3.3-4.8,6.5-7.4,9.6-5.1,5.9-11.2,11.2-18.7,13.6-8.4,2.7-17.7,1.8-26.2-.4-15.6-4.2-29.2-14.5-36.6-28.9-7.8-15.4-8-34.4,1.8-48.9,9-13.4,24.6-22.4,40.5-24.7,7.9-1.1,16-.5,23.5,2.2,4,1.4,7.7,3.4,11.3,5.8-3.8-1.4-8.1-1.7-12,0-1.6.7-.9,3.3.7,2.6ZM606.6,1370.6c-2.5-.2-5-.6-7.4-1.1-15.1-3.2-28.9-11.8-38.3-24.1,5.7,6.6,12.6,12.2,20.2,16.5,7.7,4.3,16.5,7.5,25.5,8.7Z"/>
      <path d="M601.2,1686.6c-2.6.4-5.2.9-7.7,1.6-2.6.1-5.3.3-7.9.6-8.9.9-17.7,3.2-25.9,7-16.2,7.6-30.5,21.1-37.9,37.5-4,9-4.8,18.8-5.6,28.4-.7,8.3-1.2,16.7-.4,25,.8,8.2,3.1,16.2,7.5,23.2,5,7.8,12.2,14.4,19.1,20.5,6.8,6.1,14.3,11.5,22.6,15.2,7.9,3.6,16.4,5.8,25.1,6.8,17.7,2,36-1.3,51.9-9.4,14.6-7.4,26.5-19.3,34.3-33.7,7.7-13.9,11.4-30.1,10-46-.6-6.7-2-13.4-4.3-19.7,3,6.1,5.3,12.5,6.6,19.2,1.7,8.1,2,16.5.8,24.6-1.4,9-5,17.4-9.4,25.3-4.2,7.7-8.6,15.7-14.2,22.5-5.4,6.7-12.5,11.3-20.3,14.7-7.6,3.3-15.8,6.1-23.8,8.1-9.1,2.3-18.4,1.3-27.6-.2-17.5-3-34.9-9-49.2-19.8-11.9-9-21.7-21.3-26.6-35.5-.3-1-1.8-.5-1.5.5,5,15.6,15.6,28.8,28.9,38.2,15.3,10.8,33.7,16.7,52.1,19.3,4.8.7,9.7,1.2,14.6,1,4.7-.2,9.2-1.2,13.6-2.5,8.4-2.5,16.9-5.2,24.7-9.1,7.9-3.9,14.4-9.4,19.5-16.6,2.7-3.8,5.1-7.7,7.4-11.7,2.5-4.3,5.1-8.6,7.3-13.1,4.1-8.2,6.8-16.9,7.5-26,.7-8.6-.2-17.3-2.4-25.7-4.5-16.9-14.5-31.9-26.9-44-.2-.2-.5-.4-.7-.6-2.8-2.8-5.7-5.5-8.9-7.9-.3-.2-.5-.4-.8-.6-3.3-2.6-6.6-5-10.1-7.2-4-2.5-8.1-4.7-12.6-6.3-3.3-1.1-6.7-1.7-10.1-2.1-6.1-1.8-12.4-2.8-19-1.9ZM683.3,1774.3c-.7,15.2-6.1,30.2-15,42.6-9.5,13.2-22.6,22.9-37.9,28.4-15.9,5.7-33.4,6.8-49.9,3-8-1.9-15.8-5-22.8-9.3-7.7-4.7-14.4-10.9-20.8-17.3-6.2-6.1-12-12.5-15.2-20.8-2.8-7.3-3.6-15.1-3.6-22.9,0-8.3.8-16.7,1.7-25,.5-4.8,1.3-9.6,2.9-14.2,1.5-4.3,3.6-8.3,6-12.1,9.4-14.4,23.4-25.6,39.7-31.2,4-1.4,8.1-2.4,12.3-3-1.6.7-3.1,1.4-4.6,2.1-15.4,7.4-28.8,18.7-37.7,33.3-4.8,7.8-8.3,16.4-10.1,25.4-1.8,8.8-2.2,18.3.2,27,2.4,8.7,7.9,16.3,13.5,23.2,5.7,7.1,12.1,13.5,19.8,18.3,11.2,7,24.6,10.4,37.9,10,14.8,1.2,29.9-3.2,42-11.8,13.7-9.6,23.9-24.1,27.6-40.5,2-9,2-18.6-.9-27.4-2.6-8.1-7.4-15.3-13-21.7-11.1-12.6-26.7-23.1-44-23.3-6,0-11.8,1.3-17.4,3.4-3.1.2-6.2.6-9.2,1.3-8.6,1.8-16.2,6-22.4,12.2-5.8,5.7-10.1,12.9-13,20.5-3.4,8.8-5.2,18.3-4.5,27.8.6,9.1,3.6,18,7.8,26,4.1,7.9,9.3,15.4,16.2,21.1,3.6,3,7.6,5.4,11.8,7.4-10.9-2.9-20.9-8.5-29-16.6-6-6-11.6-13.1-15.9-20.5-4.6-7.9-6.3-16.6-5.8-25.7.9-17.1,8.4-33.5,19.9-46.1,10.8-11.8,25-20.4,40.2-25.1,2.2-.7,4.4-1.3,6.6-1.7,4,0,7.9,0,11.9,0,2.6,0,5.3,0,7.9.2,9,2.4,18,6.2,26.1,10.7,25.6,14.2,42,42.9,40.8,72.2ZM581.5,1824c-15.5-7.4-25.9-22.7-30.8-38.8-5.1-16.7-1.8-35.3,7.7-49.8,4.2-6.4,9.8-12,16.6-15.5,1-.5,2-1,3-1.4-4.6,2.8-9,6.1-13,9.8-6,5.7-10.6,12.7-13.3,20.6-2.7,8.1-3.4,16.8-2.3,25.2,2,16.2,10.4,32.9,24.2,42.1,14.9,10,34.8,10.4,50.9,3,15.2-6.9,26.9-20.4,32.4-36.2,3-8.6,4.1-17.8,1.2-26.5-2.6-7.7-7.5-14.3-12.9-20.3-5-5.7-10.3-11.7-16.7-15.8,7.2,2.9,14,6.8,19.9,11.9,5.7,4.9,10.6,10.9,13.5,17.9,3.1,7.6,3.6,15.8,2.2,23.8-2.7,15.5-12,29.6-24.1,39.5-11.4,9.3-25.3,14.9-40,15.6-6.3-.5-12.6-2.2-18.4-4.9ZM639.7,1721.2c-9.3-5.3-20-8.9-30.8-10.2,4.1-.2,8.3,0,12.4,1.1,8.3,2.1,16.1,6.4,22.9,12-1.5-1-2.9-1.9-4.4-2.8ZM600,1714.7c3.1,0,6.2.2,9.3.6-4,0-8.1.7-12,1.4-5.8,1.1-12,2.2-17.7,4.4,3.7-2.3,7.6-4.3,11.7-6,2.9-.3,5.8-.4,8.6-.4ZM566.7,1742.9c-1.8-8.4,5-15.3,12.1-18.4,3.6-1.6,7.4-2.5,11.2-3.3,4.6-1,9.2-2,13.8-2.6,4.7-.6,9.4-.7,14.1.3,4.4,1,8.4,3.1,11.9,5.8,3.4,2.6,6.3,5.7,9.3,8.8,2.8,2.9,5.5,5.9,8,9.1,4.8,6.1,8.8,13.1,9.8,20.9,1,8.8-1.6,17.8-5.4,25.6-7.1,14.5-19.8,25.9-35.4,30.3-16.6,4.8-35.2,1.3-47.6-11.1-11.4-11.4-17.3-28.5-16.5-44.5.4-7.9,2.6-15.8,6.6-22.7,2.2-3.7,4.8-7,7.8-9.9-2.2,3.5-3.2,7.6-2.3,11.7.4,1.7,3.1,1.5,2.7-.2ZM665.4,1782.6c-.7,2.4-1.5,4.8-2.5,7.1-6,14.2-17.1,26.1-30.9,32.9,7.6-4.3,14.4-10,20-16.7,5.7-6.8,10.5-14.8,13.4-23.4Z"/>
      <g>
        <path d="M606.2,424.4c1.7,0,2.2-1,2.3-1.9.2-9.4-.7-18.9-2.7-28.3,0-.7,0-1.5-.1-2.2,0-.3-.4-.3-.9-.2-.4-.4-1-.7-1.9-.8-1.5,0-2.5,1-2.3,1.9,0,.2,0,.4.1.6-.2.2-.4.4-.4.6.5,9.7,1.1,19.5,1.6,29.2,0,.5,1.3.1,2-.1.5.6,1.3,1.1,2.3,1.1Z"/>
        <path d="M610.3,479c1.5-.3,2.7-1.3,2.6-2.4-.7-9.5-1.4-18.9-2.1-28.4,0-.6-.6-.9-1.3-1.1-.2-.6-.6-1.4-1.8-1.2-1,.2-1.4,1.1-1.6,1.8-.7.5-1.2,1.1-1.2,1.8.5,7.4,1.1,14.8,1.6,22.2,0,.9,0,1.8-.1,2.7,0,.5,0,1.3.5,1.8,0,.5,0,1.1.1,1.6,0,1,1.9,1.4,3.2,1.1Z"/>
        <path d="M609.4,719.4c0,0,.2-.1.3-.2,1.4,0,3.1-.5,3.6-1.4,2.9-5.4,2.3-11.1,1.8-16.7-.5-6-1-12-1.4-17.9,0-.7-1.2-1-2.2-1-.2-1.2-.4-2.4-.6-3.6-.1-.7-2,.8-2.1.9-.7.6-1.7,1.6-1.6,2.4.2.9.3,1.8.4,2.7.5,5.7.9,11.4,1.4,17,0,.4,0,.7,0,1.1,0,4.5-.3,8.9-.8,13.4-.2.5-.4.9-.6,1.4-.4.7-.2,1.1.3,1.4,0,.3,0,.6-.1.8-.1.9,1.3,0,1.6-.2Z"/>
        <path d="M613.9,882.7c.7-14.6.6-29.3-.3-44,0-1-1.7-1.9-3.2-1.7-1.8.2-2.4,1.4-2.4,2.4.9,14.3.9,28.6.3,42.8,0,1,.7,2.2,2.5,2.3,1.6.1,3.1-.9,3.2-1.9Z"/>
        <path d="M605.7,1037.8c1.3-.3,2.1-1.7,2.3-2.5,2.5-12.4,3.5-25,2.7-37.6,0-.6,0-1.3.1-1.9,0-.9-1.4-.4-2,0-1,.5-2.4,1.5-2.4,2.4-.9,12.4-1.9,24.8-2.8,37.2,0,.5.4.6.8.5,0,.3,0,.5-.1.8-.1.6,0,1.6,1.4,1.2Z"/>
      </g>
      <g>
        <path d="M610.2,1194.9c1.7,0,2.2-1,2.3-1.9.2-9.4-.7-18.9-2.7-28.3,0-.7,0-1.5-.1-2.2,0-.3-.4-.3-.9-.2-.4-.4-1-.7-1.9-.8-1.5,0-2.5,1-2.3,1.9,0,.2,0,.4.1.6-.2.2-.4.4-.4.6.5,9.7,1.1,19.5,1.6,29.2,0,.5,1.3.1,2-.1.5.6,1.3,1.1,2.3,1.1Z"/>
        <path d="M613.4,1451c0,0,.2-.1.3-.2,1.4,0,3.1-.5,3.6-1.4,2.9-5.4,2.3-11.1,1.8-16.7-.5-6-1-12-1.4-17.9,0-.7-1.2-1-2.2-1-.2-1.2-.4-2.4-.6-3.6-.1-.7-2,.8-2.1.9-.7.6-1.7,1.6-1.6,2.4.2.9.3,1.8.4,2.7.5,5.7.9,11.4,1.4,17,0,.4,0,.7,0,1.1,0,4.5-.3,8.9-.8,13.4-.2.5-.4.9-.6,1.4-.4.7-.2,1.1.3,1.4,0,.3,0,.6-.1.8-.1.9,1.3,0,1.6-.2Z"/>
        <path d="M616.2,1610.8c1.8-14,2.4-28.1,1.7-42.1,0-.9-1.2-1.7-2.6-1.4-1.5.3-2.3,1.6-2.3,2.5.7,13.7.1,27.4-1.6,41.1-.1.9.3,2,1.9,2,1.5,0,2.8-1.2,2.9-2.1Z"/>
        <path d="M617.9,1679.2c.7-14.6.6-29.3-.3-44,0-1-1.7-1.9-3.2-1.7-1.8.2-2.4,1.4-2.4,2.4.9,14.3.9,28.6.3,42.8,0,1,.7,2.2,2.5,2.3,1.6.1,3.1-.9,3.2-1.9Z"/>
      </g>
      <path d="M482.2,145.1c-13.6-3-27.4-5.9-41.3-4.8-6.1.5-12,1.8-17.8,4.1-6.9,2.8-13.9,7.7-21.3,4.1-9.5-4.5-15.3-16.2-26.1-17.3-5.8-.6-13.1,1.7-15.5,8.2-8.3-5-18.8-4.1-26.3,2.3-1.7-14.5-15.3-25-27.4-23.9-14.1,1.3-24.2,14.9-28.8,30.1-.8-1.3-2.6,4.2-2.9,5.3h0c-.6,23.7.6,39.4-.3,63.1-.4,11.1-1.4,22-1.1,33.1.3,10.9,1.4,21.9,3.2,32.7.8,4.7,2,9.3,2.3,14.1.6,7-2.1,11.1-6.6,16.2-4.4,4.9-6.4,10.5-5.4,17.1,1,6.9,4.6,13.1,7.2,19.5,1.3,3.1,2.7,6.4,2.8,9.8.1,4.8-2.8,7.6-5.9,10.8-4.5,4.6-7.5,9.9-5.3,16.4,1,3,2.9,5.6,4.8,8.2,3.8,5.3,4.9,8.6,2.3,15.1-3.9,9.7-4.8,18.8-4.8,29.2,0,11.9,0,23.7.1,35.6.1,26,.2,51.9.3,77.9,0,12.6.7,28.4,9.7,37.8-11.6,2.9-22.5,10.5-24.7,22.9-1.8,9.9,2.9,21.5,12,25.7-4.4,5.1-6.7,11.8-6.8,18.6,0,4.4.8,8.9,2.7,12.9,1.1,2.3,2.3,3.6,2.4,6.1,0,3.9-.8,8-1.1,11.8-2.3,30.5-.9,61.2,3.6,91.4.6,4.2,4.8,1.8,4.3-1.6-4.1-26.8-5.5-53.9-4.1-81,.3-6.5.8-12.9,1.5-19.4.2-2.1.8-4.3,0-6.3-.7-1.9-2.6-3.5-3.4-5.4-4-9.4-.3-20.3,8-25.9,1.8-1.2,1.5-5.9-1-6.1-10.2-.8-16.8-12.7-13.1-22,4.1-10.7,16.6-15.6,27.2-16.4,2.9-.2,3-5.3.7-6.4-16.5-8-13.6-32.7-13.6-47.7,0-22.6-.2-45.2-.3-67.8,0-11.1,0-22.2-.1-33.4,0-5.5-.2-11,.7-16.5.9-5.4,3.5-9.9,5-15,2.1-7.2-.4-12.7-4.5-18.5-2.6-3.6-5.8-7.3-3-11.7,2.1-3.2,5.5-5.4,7.7-8.6,7.5-11.3-1.2-24.1-5.3-34.8-1.2-3.2-2.4-6.7-1.9-10.1.7-4.7,4.9-7.6,7.6-11.2,5-6.4,5.1-14.5,3.9-22.2-3.3-21.7-6-42.8-4.5-64.9,1.5-22.5,1.6-45.1,2.2-67.6l-.6-.6c.7-.4,1.3-1,1.5-1.9,2.5-14.5,11-30.9,24.2-33.6,12.4-2.5,25.4,11.2,22.9,26.5-.4,2.6,4.1,2.8,5,1.2,6.2-10.3,18.3-12.8,26.7-4.9,1.2,1.1,4.6,1,4.7-1.5.2-5.7,4.3-8.1,8.7-8.3,4.6-.2,8.2,2.5,11.8,5.7,7.4,6.6,14.3,14,24.2,12.9,5.2-.6,10-3.2,14.8-5.2,6.1-2.6,12.6-4,19.1-4.3,12.6-.6,25,2.1,37.4,4.8,2.9.6,5-3.5,1.5-4.2Z"/>
      <g>
        <path d="M291.9,969.3c.1-2.5.2-4.9.3-7.4.4-6.9.7-13.7,1.1-20.6h-4.4c-.2,4.6-.5,9.3-.7,13.9-.2,4.7-.5,9.3-.7,14h4.4Z"/>
        <path d="M293.4,1118.6l-4.4.2c0,4.4,0,8.7-.2,13.1-.2,5.6-.7,11.2-.5,16.8l4.6-.2c-.3-3.6-.4-7.3-.1-11.1.5-6.3.6-12.6.7-18.9Z"/>
      </g>
      <path d="M507.4,1782.6c-4.9-.1-9.8-.2-14.7-.3-49.9-1.3-99.9-2.7-149.8-4-2.2-8.5-13.6-10.9-21.4-8.9-6.1,1.6-11,5.8-16.3,8.9-3.6,2.1-7.4,4.1-11.6,3.1-4.1-.9-8.2-4.3-7.1-8.9.2-1.1-.1-1.8-.8-2.2,0-6,.2-12,.5-18,.3-6.5.8-12.9,1.5-19.4.2-2.1.8-4.3,0-6.3-.7-1.9-2.6-3.5-3.4-5.4-4-9.4-.3-20.3,8-25.9,1.8-1.2,1.5-5.9-1-6.1-10.2-.8-16.8-12.7-13.1-22,4.1-10.7,16.6-15.6,27.2-16.4,2.9-.2,3-5.3.7-6.4-16.5-8-13.6-32.7-13.6-47.7,0-22.6-.2-45.2-.3-67.8,0-11.1,0-22.2-.1-33.4,0-5.5-.2-11,.7-16.5.9-5.4,3.5-9.9,5-15,2.1-7.2-.4-12.7-4.5-18.5-2.6-3.6-5.8-7.3-3-11.7,2.1-3.2,5.5-5.4,7.7-8.6,7.5-11.3-1.2-24.1-5.3-34.8-1.2-3.2-2.4-6.7-1.9-10.1.7-4.7,4.9-7.6,7.6-11.2,5-6.4,5.1-14.5,3.9-22.2-1.9-12.5-3.6-24.7-4.4-37h-4.7c.5,9.4,1.4,18.8,3,28.1.8,4.7,2,9.3,2.3,14.1.6,7-2.1,11.1-6.6,16.2-4.4,4.9-6.4,10.5-5.4,17.1,1,6.9,4.6,13.1,7.2,19.5,1.3,3.1,2.7,6.4,2.8,9.8.1,4.8-2.8,7.6-5.9,10.8-4.5,4.6-7.5,9.9-5.3,16.4,1,3,2.9,5.6,4.8,8.2,3.8,5.3,4.9,8.6,2.3,15.1-3.9,9.7-4.8,18.8-4.8,29.2,0,11.9,0,23.7.1,35.6.1,26,.2,51.9.3,77.9,0,12.6.7,28.4,9.7,37.8-11.6,2.9-22.5,10.5-24.7,22.9-1.8,9.9,2.9,21.5,12,25.7-4.4,5.1-6.7,11.8-6.8,18.6,0,4.4.8,8.9,2.7,12.9,1.1,2.3,2.3,3.6,2.4,6.1,0,3.9-.8,8-1.1,11.8-.7,8.9-1,17.8-1,26.6-.3.1-.5.3-.7.4-.6.5-1.3,1-1.9,1.5v5.6c.6-.3,1.2-.5,1.7-.8,2.4,7.1,12.7,10.4,20,8.7,6.8-1.6,12.3-6.4,18.2-9.8,5.6-3.2,17.5-5,18.1,4.4.1,1.6,1.8,2.2,3.2,2.3,46.4,1.2,92.8,2.5,139.2,3.7,9.4.3,18.8.5,28.1.7v-4.4Z"/>
      <path d="M283.9,792.4c-19.5-4.6-39.1,1.3-52.7,16.1-6.2,6.8-10.5,14.7-13.2,23.2-4.6,10.3-7.5,21.4-8.3,32.4-1.2,16.6,3.8,33.7,16.7,44.8,13.4,11.6,31.7,15.6,49.1,14.2,18.3-1.5,39.4-7,54.4-18,13.6-10.1,20.5-26.2,20.1-43-1-35.5-33.5-62-66-69.7ZM332.8,889.6c-9.5,12.9-26.6,18.2-41.4,22-15.9,4-33.4,5-48.7-2.1-13.9-6.5-23-18.8-24.8-34.1-.4-3.1-.4-6.2-.3-9.3,1.7.3,3.7-.8,3.6-2.8-.2-8.8.6-17.9,3-26.5,1.2-2.8,2.4-5.6,3.8-8.3,3.5-6.9,8.3-14.1,14.2-19.6,8.5-6.7,19-10.6,30-9.9,15.1.9,30.6,8.6,42.6,17.6,11.2,8.5,20.4,20.1,24.1,33.8,3.5,13.1,2.1,28.1-6.1,39.2Z"/>
      <path d="M283.9,976.4c-19.5-4.6-39.1,1.3-52.7,16.1-6.2,6.8-10.5,14.7-13.2,23.2-4.6,10.3-7.5,21.4-8.3,32.4-1.2,16.6,3.8,33.7,16.7,44.8,13.4,11.6,31.7,15.6,49.1,14.2,18.3-1.5,39.4-7,54.4-18,13.6-10.1,20.5-26.2,20.1-43-1-35.5-33.5-62-66-69.7ZM332.8,1073.6c-9.5,12.9-26.6,18.2-41.4,22-15.9,4-33.4,5-48.7-2.1-13.9-6.5-23-18.8-24.8-34.1-.4-3.1-.4-6.2-.3-9.3,1.7.3,3.7-.8,3.6-2.8-.2-8.8.6-17.9,3-26.5,1.2-2.8,2.4-5.6,3.8-8.3,3.5-6.9,8.3-14.1,14.2-19.6,8.5-6.7,19-10.6,30-9.9,15.1.9,30.6,8.6,42.6,17.6,11.2,8.5,20.4,20.1,24.1,33.8,3.5,13.1,2.1,28.1-6.1,39.2Z"/>
      <path d="M283.9,1160.4c-19.5-4.6-39.1,1.3-52.7,16.1-6.2,6.8-10.5,14.7-13.2,23.2-4.6,10.3-7.5,21.4-8.3,32.4-1.2,16.6,3.8,33.7,16.7,44.8,13.4,11.6,31.7,15.6,49.1,14.2,18.3-1.5,39.4-7,54.4-18,13.6-10.1,20.5-26.2,20.1-43-1-35.5-33.5-62-66-69.7ZM332.8,1257.6c-9.5,12.9-26.6,18.2-41.4,22-15.9,4-33.4,5-48.7-2.1-13.9-6.5-23-18.8-24.8-34.1-.4-3.1-.4-6.2-.3-9.3,1.7.3,3.7-.8,3.6-2.8-.2-8.8.6-17.9,3-26.5,1.2-2.8,2.4-5.6,3.8-8.3,3.5-6.9,8.3-14.1,14.2-19.6,8.5-6.7,19-10.6,30-9.9,15.1.9,30.6,8.6,42.6,17.6,11.2,8.5,20.4,20.1,24.1,33.8,3.5,13.1,2.1,28.1-6.1,39.2Z"/>
      <path class="cls-1" d="M658.5,926.7c-5-13.3-14.5-25.4-26-33.6-11.1-8-24.6-12.1-38.3-10.8-13.1,1.3-25.9,7.5-33.8,18.3-7.7,10.7-9.8,24.3-8.1,37.2,0,5.3.6,10.5,2.1,15.6,2.2,7.5,6.8,13.7,12.5,18.8,2.9,2.6,6,4.9,9.2,7.1,3.4,2.4,6.8,4.8,10.4,6.8,6.8,3.7,14.3,5.7,22.1,5.3,15.1-.6,28.8-8.7,37.9-20.6,4.5-5.9,7.9-12.5,10.3-19.5,2.7-7.8,4.6-16.6,1.6-24.6ZM656.9,938.8c-.8,7.3-3.5,14.6-6.8,21-6.4,12.4-16.9,22.9-30.4,27.1-6.8,2.2-14.2,2.8-21.2,1.3-6.1-1.2-11.5-4.1-16.7-7.4.3,0,.6.2.9.2.6.1.9-.8.3-1-1.7-.4-3.3-.9-4.8-1.6-.1,0-.2-.2-.3-.2-3.4-2.4-6.9-4.8-10.1-7.6-4.9-5.5-8.4-12.5-10.6-19.1-1.7-5.1-2.8-10.6-3.3-16.1,0-5.7.3-11.5,1.4-17.1,1.4-7.1,4.5-13.9,10-18.9,2.4-2.2,5.3-3.9,8.5-4.9.3,0,.2-.5-.1-.4-2.3.5-4.5,1.4-6.4,2.6,5-4.7,11.2-8.1,18-10.1,12.3-3.5,25.5-2.2,37,3.4,11.9,5.9,21.6,15.8,28.3,27.2,1.7,2.9,3.3,6,4.6,9.2,1.6,4,2.2,8,1.7,12.3Z"/>
    </g>
  </g>
</svg>